<svg version="1.1" id="Layer_1" xmlns="http://www.w3.org/2000/svg" xmlns:xlink="http://www.w3.org/1999/xlink" x="0px" y="0px"
	 width="100%" viewBox="0 0 1600 1067" enable-background="new 0 0 1600 1067" xml:space="preserve">
<path fill="#000000" opacity="1.000000" stroke="none" 
	d="
M1013.000000,1068.000000 
	C675.333313,1068.000000 338.166656,1068.000000 1.000000,1068.000000 
	C1.000000,712.333313 1.000000,356.666656 1.000000,1.000000 
	C534.333313,1.000000 1067.666626,1.000000 1601.000000,1.000000 
	C1601.000000,356.666656 1601.000000,712.333313 1601.000000,1068.000000 
	C1405.166626,1068.000000 1209.333374,1068.000000 1013.000000,1068.000000 
M1341.009399,516.500000 
	C1341.009277,481.834778 1340.955322,447.169373 1341.048096,412.504395 
	C1341.070679,404.083893 1339.413208,396.416656 1333.997559,389.655487 
	C1326.245605,379.977570 1316.580200,374.021210 1303.991577,374.019592 
	C968.500000,373.976379 633.008423,373.997864 297.516846,373.950012 
	C280.109375,373.947510 260.776184,390.833374 260.852905,410.562927 
	C261.175507,493.559601 261.102722,576.558533 260.900085,659.555908 
	C260.855774,677.701233 279.261261,695.010132 296.572296,695.010376 
	C632.897217,695.014893 969.222107,695.007080 1305.546997,695.048035 
	C1314.794556,695.049133 1322.580200,690.948730 1328.882080,685.245789 
	C1336.902466,677.987915 1341.256592,668.630615 1341.163086,656.995300 
	C1340.789551,610.499451 1341.009277,563.998840 1341.009399,516.500000 
z"/>
<path fill="#A3A3A4" opacity="1.000000" stroke="none" 
	d="
M1341.009399,517.000000 
	C1341.009277,563.998840 1340.789551,610.499451 1341.163086,656.995300 
	C1341.256592,668.630615 1336.902466,677.987915 1328.882080,685.245789 
	C1322.580200,690.948730 1314.794556,695.049133 1305.546997,695.048035 
	C969.222107,695.007080 632.897217,695.014893 296.572296,695.010376 
	C279.261261,695.010132 260.855774,677.701233 260.900085,659.555908 
	C261.102722,576.558533 261.175507,493.559601 260.852905,410.562927 
	C260.776184,390.833374 280.109375,373.947510 297.516846,373.950012 
	C633.008423,373.997864 968.500000,373.976379 1303.991577,374.019592 
	C1316.580200,374.021210 1326.245605,379.977570 1333.997559,389.655487 
	C1339.413208,396.416656 1341.070679,404.083893 1341.048096,412.504395 
	C1340.955322,447.169373 1341.009277,481.834778 1341.009399,517.000000 
M1333.844116,454.092438 
	C1333.801392,447.070587 1333.758789,440.048767 1333.858521,432.097260 
	C1333.817627,425.072601 1333.776611,418.047913 1333.790649,410.246796 
	C1329.359741,390.083832 1319.228638,381.939423 1298.552734,381.939117 
	C1118.903931,381.936462 939.255188,381.934296 759.606384,381.952728 
	C757.289551,381.952972 754.972778,382.223602 751.804260,382.072144 
	C749.979126,381.982147 748.153992,381.813934 746.328857,381.813538 
	C684.009705,381.799927 621.690613,381.802094 559.371460,381.802307 
	C473.224396,381.802643 387.077332,381.790710 300.930267,381.813324 
	C281.212982,381.818512 268.206757,394.702118 268.201416,414.227692 
	C268.179352,494.542755 268.087097,574.858215 268.405304,655.171997 
	C268.429169,661.188599 270.334961,667.859070 273.363098,673.063416 
	C279.472076,683.562744 289.603088,687.332703 301.745087,687.328796 
	C632.836365,687.223083 963.927612,687.234802 1295.018921,687.219849 
	C1296.682129,687.219788 1298.345215,687.119141 1300.904297,687.216980 
	C1318.255005,688.781433 1334.887695,673.851135 1333.744385,654.111206 
	C1333.677612,647.418274 1333.610962,640.725281 1333.756104,633.111389 
	C1333.696289,626.755493 1333.636597,620.399658 1333.786133,613.119629 
	C1333.720215,600.424438 1333.654175,587.729248 1333.790771,574.114441 
	C1333.725586,561.415527 1333.660400,548.716553 1333.788208,535.098328 
	C1333.728882,527.076904 1333.669556,519.055481 1333.812622,510.109375 
	C1333.755005,504.745880 1333.697388,499.382355 1333.814575,493.095886 
	C1333.761963,486.073792 1333.709351,479.051697 1333.842651,471.102478 
	C1333.792480,465.741516 1333.742310,460.380585 1333.844116,454.092438 
z"/>
<path fill="#292929" opacity="1.000000" stroke="none" 
	d="
M1300.008423,687.065491 
	C1298.345215,687.119141 1296.682129,687.219788 1295.018921,687.219849 
	C963.927612,687.234802 632.836365,687.223083 301.745087,687.328796 
	C289.603088,687.332703 279.472076,683.562744 273.363098,673.063416 
	C270.334961,667.859070 268.429169,661.188599 268.405304,655.171997 
	C268.087097,574.858215 268.179352,494.542755 268.201416,414.227692 
	C268.206757,394.702118 281.212982,381.818512 300.930267,381.813324 
	C387.077332,381.790710 473.224396,381.802643 559.371460,381.802307 
	C621.690613,381.802094 684.009705,381.799927 746.328857,381.813538 
	C748.153992,381.813934 749.979126,381.982147 752.287720,382.553162 
	C758.447937,390.730652 764.124756,398.427124 769.894287,406.454651 
	C775.617615,414.266388 781.248413,421.747040 786.937988,429.556885 
	C790.450012,435.054108 793.903259,440.222168 797.095154,445.595703 
	C792.470886,447.460815 795.580933,449.788330 795.929260,451.974609 
	C798.470581,451.400513 800.654053,450.907227 802.864990,450.762634 
	C804.007385,453.502777 805.122375,455.894226 805.960938,458.561157 
	C803.010376,459.621124 800.096985,459.970001 797.711121,461.279724 
	C792.559448,464.107574 790.547974,469.873383 792.210999,475.481323 
	C793.613647,480.211273 798.280640,483.492645 803.884277,482.790863 
	C807.346130,482.357300 810.654358,480.697571 812.470276,480.101105 
	C815.571899,480.972015 817.550110,481.903168 819.532776,481.912872 
	C820.417969,481.917236 821.312134,480.069611 822.522461,479.133423 
	C826.553223,483.835876 830.263855,488.467346 834.113037,493.402588 
	C837.825989,498.475708 841.400330,503.245087 845.116638,508.322479 
	C850.818787,516.097961 856.378906,523.565430 862.087341,531.339966 
	C869.814575,541.769653 877.393616,551.892273 885.015625,562.360596 
	C890.524780,570.129395 896.027405,577.525879 901.447998,584.982056 
	C908.321472,594.436707 915.128479,603.939758 921.545593,613.425659 
	C915.295776,611.734192 909.464539,610.038940 903.333435,608.256592 
	C902.166809,612.433350 900.899231,616.971558 899.639893,621.480347 
	C909.516296,627.726929 920.015076,628.414429 930.730591,628.214355 
	C932.576233,628.179871 934.431335,628.644897 935.995422,629.050293 
	C935.798523,630.123901 935.563721,631.267578 936.027649,631.892090 
	C941.289185,638.974731 946.657654,645.977966 952.135254,653.314636 
	C957.656189,660.768250 962.987793,667.949646 968.468018,675.015869 
	C969.509033,676.358093 970.994629,677.878906 972.522583,678.224915 
	C977.764709,679.412170 983.102295,680.771179 988.429504,680.889343 
	C1014.532104,681.468201 1040.642212,681.775024 1066.751221,681.978271 
	C1119.341797,682.387756 1171.932861,682.708740 1224.524292,682.981995 
	C1246.842651,683.097900 1269.162476,682.954590 1291.480957,683.053772 
	C1294.786865,683.068481 1298.722046,682.445618 1300.008423,687.065491 
M705.610291,657.550537 
	C711.049194,657.550537 716.488159,657.550537 722.580200,657.550537 
	C722.580200,644.842773 722.580200,632.341553 722.580200,620.208923 
	C727.377014,622.801147 731.537476,626.062134 736.244751,627.401978 
	C749.915588,631.292969 764.140991,625.437195 771.767700,613.347290 
	C779.421448,601.214478 780.336487,587.924683 777.100769,574.390381 
	C774.136963,561.992859 767.170837,552.304565 754.158264,549.236633 
	C741.354919,546.218079 730.065857,549.387085 721.814636,560.441711 
	C721.720154,560.568237 721.256470,560.419250 720.701111,560.380371 
	C720.337341,557.001648 719.970032,553.590271 719.615112,550.293579 
	C714.425232,550.293579 709.550964,550.293579 704.941101,550.293579 
	C704.941101,585.805786 704.941101,620.911987 704.605469,656.184631 
	C704.731018,656.454407 704.856567,656.724243 705.610291,657.550537 
M811.898926,621.948914 
	C812.480042,621.945801 813.061157,621.942688 814.259399,622.079590 
	C826.995483,632.017151 845.630859,630.183716 856.631836,617.910645 
	C868.969238,604.146667 870.672729,576.997314 860.003540,561.797302 
	C852.508972,551.119995 842.305115,546.759094 829.253479,548.745544 
	C820.864807,550.022278 814.561096,554.307922 809.109436,561.828674 
	C808.626465,557.299500 808.250977,553.778442 807.860046,550.112488 
	C802.919006,550.112488 798.165100,550.112488 793.628906,550.112488 
	C793.628906,586.065796 793.628906,621.791260 793.628906,658.181458 
	C799.829346,657.762451 805.401978,657.385864 811.270569,656.794312 
	C811.350281,656.704590 811.511719,656.554749 811.496887,656.534546 
	C811.359131,656.347107 811.191101,656.181946 810.788635,655.099243 
	C810.867920,644.063904 810.947144,633.028625 811.898926,621.948914 
M386.275604,483.733093 
	C375.677856,491.622589 369.196045,502.228882 365.948639,514.884277 
	C362.793243,527.181030 362.934814,539.616394 364.970001,552.053467 
	C369.086090,577.207153 379.793945,599.255981 396.929291,618.059326 
	C407.256958,629.392334 416.005768,630.991333 430.148254,625.205444 
	C433.829895,623.699219 437.544098,622.128601 441.391113,621.198669 
	C450.795074,618.925659 459.789612,620.446167 468.598145,624.411621 
	C484.077667,631.380371 495.429077,629.251770 505.775696,615.816589 
	C513.433472,605.872803 519.485229,594.671387 525.979492,583.866211 
	C527.713013,580.981873 528.443665,577.494690 529.651428,574.239319 
	C513.002686,565.973083 503.395142,553.356689 502.291504,535.297302 
	C501.189423,517.263306 509.911407,503.901672 524.195312,493.766174 
	C516.736511,483.417023 507.170166,477.421112 495.240082,474.822937 
	C483.506500,472.267578 472.257660,473.902710 461.677338,478.956146 
	C452.081512,483.539337 442.966522,484.043060 433.642303,478.792267 
	C432.924866,478.388245 432.087280,478.202240 431.317749,477.885284 
	C415.479279,471.362244 400.723114,473.726196 386.275604,483.733093 
M683.399658,626.770081 
	C685.536194,626.770081 687.672729,626.770081 690.305420,626.770081 
	C689.855347,625.075684 689.582886,623.824097 689.191833,622.610779 
	C680.111938,594.437317 671.063049,566.253723 661.893982,538.109314 
	C659.919739,532.049377 659.134644,523.703613 654.840759,520.820496 
	C650.361938,517.813232 642.305481,520.133545 635.813110,520.130066 
	C635.650085,520.130005 635.487000,520.192444 634.866516,520.319092 
	C623.545471,555.474731 612.154358,590.847717 600.586609,626.769470 
	C605.840942,626.769470 610.338989,626.544495 614.801025,626.848206 
	C617.798279,627.052185 618.844482,625.770447 619.586121,623.168823 
	C621.910889,615.013794 624.561157,606.950562 626.823303,598.779236 
	C627.596375,595.986572 628.935425,595.174377 631.730530,595.229370 
	C640.390320,595.399658 649.062134,595.487732 657.715637,595.198669 
	C661.380920,595.076233 662.917358,596.272278 663.923767,599.773865 
	C666.524780,608.823730 669.581177,617.742676 672.473755,626.770081 
	C676.138245,626.770081 679.292297,626.770081 683.399658,626.770081 
M487.237518,430.268372 
	C487.237518,428.349976 487.237518,426.431549 487.237518,424.493988 
	C464.000427,425.493042 442.487549,450.661102 446.695435,471.091522 
	C466.134521,472.948761 485.101135,454.204254 487.237518,430.268372 
M644.402405,478.265991 
	C645.648926,484.737762 650.482544,481.253052 654.082947,482.029236 
	C653.975159,481.034851 654.013306,480.361908 653.820984,479.763092 
	C648.834412,464.238770 643.681580,448.765717 638.912964,433.175049 
	C637.644592,429.028290 634.804138,430.206299 632.189880,430.042999 
	C629.491943,429.874542 627.249756,429.744354 626.135193,433.411102 
	C621.588318,448.369659 616.636230,463.204895 611.856934,478.093170 
	C611.481995,479.261200 611.287781,480.487213 610.854919,482.352661 
	C614.427185,480.955109 618.622253,484.717712 620.410645,478.916687 
	C624.137268,466.828552 624.298218,466.878662 637.110596,466.955444 
	C638.264038,466.962372 639.417603,466.956390 640.781372,466.956390 
	C641.933960,470.584412 643.032043,474.040985 644.402405,478.265991 
M733.596619,470.487976 
	C733.502014,465.506439 733.616394,460.509735 733.255676,455.547546 
	C732.875000,450.310669 730.262878,446.290588 725.046692,444.781036 
	C718.440735,442.869293 712.022949,443.457550 705.911377,447.204315 
	C706.544250,449.045349 707.064331,450.558319 707.581848,452.063873 
	C720.172058,448.085815 724.750061,449.552521 724.776550,457.569580 
	C722.349731,457.834900 719.857239,457.895050 717.469421,458.426056 
	C714.900146,458.997406 712.252441,459.676758 709.949646,460.895905 
	C704.061340,464.013214 701.710083,470.408020 704.016235,476.098053 
	C706.216248,481.526062 712.180237,484.236420 718.573669,482.359833 
	C721.030273,481.638794 723.256165,480.132080 725.702942,478.926361 
	C726.645325,484.239471 730.565918,481.726410 733.598206,481.801910 
	C733.598206,478.085358 733.598206,474.783203 733.596619,470.487976 
M693.825500,451.479736 
	C694.562134,449.337616 695.298767,447.195465 696.062500,444.974487 
	C687.643127,443.862061 687.625671,443.856598 685.288330,451.321716 
	C683.061584,458.433624 680.876587,465.558563 678.540588,473.106476 
	C675.945923,465.229126 673.499878,457.834045 671.074951,450.432098 
	C668.812317,443.525360 668.516846,443.365936 660.506287,445.307617 
	C664.513306,456.229767 668.553955,467.096893 672.463501,478.010986 
	C673.354797,480.499115 674.009460,482.433075 677.454895,482.211731 
	C680.508484,482.015533 682.592529,481.793579 683.781982,478.331238 
	C686.801819,469.540802 690.281250,460.908295 693.825500,451.479736 
M771.265991,428.071228 
	C771.265991,445.994812 771.265991,463.918427 771.265991,481.914246 
	C774.129333,481.914246 776.588562,481.914246 779.214111,481.914246 
	C779.214111,463.691406 779.214111,445.642303 779.214111,427.463440 
	C776.553833,427.463440 774.239197,427.463440 771.265991,428.071228 
M747.985474,468.491394 
	C747.985474,472.911987 747.985474,477.332611 747.985474,481.900330 
	C751.060059,481.900330 753.507446,481.900330 756.028076,481.900330 
	C756.028076,469.400940 756.028076,457.079407 756.028076,444.839264 
	C753.191711,444.839264 750.763306,444.839264 747.985474,444.839264 
	C747.985474,452.602142 747.985474,460.048492 747.985474,468.491394 
M747.609741,431.301666 
	C746.475586,434.490540 747.233887,437.302124 750.594910,437.930084 
	C752.436279,438.274139 755.342163,437.217377 756.455566,435.777435 
	C757.318848,434.661041 756.848267,431.327484 755.734436,430.113495 
	C753.374207,427.540802 750.395935,427.974609 747.609741,431.301666 
z"/>
<path fill="#717171" opacity="1.000000" stroke="none" 
	d="
M769.801636,406.123596 
	C764.124756,398.427124 758.447937,390.730652 752.713501,382.701111 
	C754.972778,382.223602 757.289551,381.952972 759.606384,381.952728 
	C939.255188,381.934296 1118.903931,381.936462 1298.552734,381.939117 
	C1319.228638,381.939423 1329.359741,390.083832 1333.355713,410.628357 
	C1324.133545,411.339935 1315.348267,411.797272 1306.557983,411.936432 
	C1303.106934,411.991058 1299.648438,411.092682 1296.186890,411.038452 
	C1270.403687,410.634613 1244.618896,410.328156 1218.834473,410.002289 
	C1191.883911,409.661713 1164.933105,409.341370 1137.982544,408.997742 
	C1112.697998,408.675323 1087.413696,408.327454 1062.129150,408.002838 
	C1035.511841,407.661102 1008.894287,407.334229 982.276855,406.999817 
	C955.826050,406.667542 929.375244,406.334076 902.924438,406.000763 
	C876.473633,405.667450 850.023438,405.264069 823.571777,405.026123 
	C807.744080,404.883759 791.913879,404.958649 776.085449,405.049866 
	C773.988831,405.061920 771.896118,405.749084 769.801636,406.123596 
z"/>
<path fill="#6C6C6C" opacity="1.000000" stroke="none" 
	d="
M769.894287,406.454681 
	C771.896118,405.749084 773.988831,405.061920 776.085449,405.049866 
	C791.913879,404.958649 807.744080,404.883759 823.571777,405.026123 
	C850.023438,405.264069 876.473633,405.667450 902.924438,406.000763 
	C929.375244,406.334076 955.826050,406.667542 982.276855,406.999817 
	C1008.894287,407.334229 1035.511841,407.661102 1062.129150,408.002838 
	C1087.413696,408.327454 1112.697998,408.675323 1137.982544,408.997742 
	C1164.933105,409.341370 1191.883911,409.661713 1218.834473,410.002289 
	C1244.618896,410.328156 1270.403687,410.634613 1296.186890,411.038452 
	C1299.648438,411.092682 1303.106934,411.991058 1306.557983,411.936432 
	C1315.348267,411.797272 1324.133545,411.339935 1333.328247,411.016602 
	C1333.776611,418.047913 1333.817627,425.072601 1333.416992,432.565918 
	C1329.135132,433.689697 1325.290894,434.927094 1321.454712,434.903351 
	C1300.165283,434.771576 1278.878418,434.257111 1257.589111,434.027496 
	C1243.982056,433.880737 1230.371216,434.101440 1216.763672,433.979401 
	C1186.809448,433.710785 1156.856201,433.329315 1126.814575,432.583435 
	C1126.621338,430.615479 1126.516113,429.057983 1126.333862,426.361786 
	C1123.022095,427.401062 1120.468018,428.202545 1117.490479,429.004578 
	C1111.950439,429.336731 1106.830322,429.992706 1101.718018,429.937073 
	C1088.273315,429.790771 1074.833496,429.227020 1061.388916,429.024902 
	C1034.130005,428.614990 1006.869385,428.291626 979.608643,428.019806 
	C967.789978,427.901947 955.967468,428.128967 944.149902,427.965057 
	C931.371033,427.787872 918.597412,427.229340 905.818481,427.066589 
	C901.556335,427.012329 897.285156,427.665894 892.670532,427.789612 
	C889.912292,427.583344 887.501526,427.583344 884.228271,427.583344 
	C884.228271,439.263672 884.228271,450.611908 883.779724,461.965027 
	C879.579834,460.983215 875.828491,459.996521 871.962830,458.645660 
	C869.484497,454.251099 867.926819,449.288208 864.580139,446.394257 
	C858.557068,441.186035 851.631287,444.277863 844.653503,447.604431 
	C844.653503,440.281403 844.653503,433.892731 844.653503,427.105652 
	C841.527222,427.105652 838.894104,427.105652 835.787964,427.075256 
	C821.941589,426.696686 808.568176,426.157867 795.194763,426.156525 
	C792.423035,426.156219 789.651001,428.151886 786.879150,429.227661 
	C781.248413,421.747040 775.617615,414.266388 769.894287,406.454681 
z"/>
<path fill="#535353" opacity="1.000000" stroke="none" 
	d="
M861.939087,531.032837 
	C856.378906,523.565430 850.818787,516.097961 845.502197,508.153107 
	C847.705627,507.450897 849.668030,507.010254 851.624817,507.034180 
	C874.731567,507.316315 897.837402,507.667175 920.943481,508.001465 
	C943.882996,508.333344 966.822266,508.690704 989.762146,508.993561 
	C1017.031189,509.353546 1044.300903,509.658966 1071.570190,510.003571 
	C1097.007812,510.325043 1122.445068,510.676880 1147.882690,510.997070 
	C1175.318481,511.342438 1202.753784,511.763916 1230.190674,511.968536 
	C1251.338989,512.126221 1272.489624,511.999023 1293.639160,512.002136 
	C1295.137695,512.002380 1296.648804,511.912262 1298.132690,512.068054 
	C1310.007812,513.315125 1321.870117,514.341553 1333.610352,511.034058 
	C1333.669556,519.055481 1333.728882,527.076904 1333.318359,535.556091 
	C1324.979980,536.675903 1317.121582,537.611694 1309.239380,537.902039 
	C1304.139648,538.089783 1299.008667,537.119690 1293.885498,537.036133 
	C1268.623779,536.623657 1243.360107,536.321533 1218.096924,536.004395 
	C1190.336792,535.656006 1162.577148,535.166138 1134.815918,535.041199 
	C1097.774780,534.874451 1060.731689,535.098145 1023.690613,534.910095 
	C1016.965454,534.875977 1010.246277,533.670227 1003.429199,532.613892 
	C1002.745544,531.890198 1002.035339,531.152832 1001.586975,531.287476 
	C996.609192,532.782532 991.672058,534.412781 986.319580,536.022217 
	C979.146912,536.358643 972.374084,536.956482 965.612915,536.844604 
	C963.345337,536.807068 961.107666,534.961121 958.862488,533.555603 
	C959.769592,530.049377 960.670532,526.929382 961.546143,523.896790 
	C944.974426,514.834900 919.722534,515.600037 905.867310,531.078491 
	C890.920776,531.043213 876.429932,531.038025 861.939087,531.032837 
z"/>
<path fill="#5D5D5D" opacity="1.000000" stroke="none" 
	d="
M872.077148,459.009827 
	C875.828491,459.996521 879.579834,460.983215 883.884583,462.363342 
	C884.437988,469.015533 884.437988,475.274261 884.437988,481.690613 
	C887.580261,481.690613 890.098816,481.690613 893.122253,481.690613 
	C893.122253,474.219879 893.122253,467.114288 893.561646,460.006775 
	C897.634521,459.672485 901.267944,459.340179 905.008911,459.403259 
	C902.187805,468.218201 908.312378,479.811707 917.380859,481.775085 
	C921.794922,482.730774 926.573303,482.172424 931.178345,482.028748 
	C935.541504,481.892639 937.070068,479.663635 935.106750,475.195618 
	C933.948486,475.128906 932.651428,474.965515 931.359619,475.000366 
	C929.365295,475.054169 927.346069,475.074585 925.387451,475.405640 
	C918.129639,476.632446 914.263977,473.579102 913.756653,465.193695 
	C921.873291,465.193695 929.953308,465.193695 938.021790,465.603271 
	C939.149353,467.006470 940.206482,468.715332 941.443237,468.857056 
	C944.887878,469.251801 948.425354,469.224426 951.892822,468.947021 
	C957.893250,468.466980 963.868591,467.672699 969.947449,467.381348 
	C972.684631,476.241516 977.765381,482.102661 987.126343,482.863556 
	C996.304810,483.609589 1002.506836,479.224091 1006.601074,471.073669 
	C1011.064270,471.770844 1015.161133,472.407593 1019.403442,473.476868 
	C1019.677185,476.814880 1019.805481,479.720367 1019.929749,482.533264 
	C1027.902710,483.508270 1027.935303,483.478455 1028.103149,476.207947 
	C1028.175537,473.080750 1028.263794,469.953918 1028.757935,466.908325 
	C1032.410034,469.851501 1035.939453,471.185791 1040.183960,469.236328 
	C1041.327759,468.710999 1042.577759,468.416779 1043.845459,468.478394 
	C1043.911865,473.542480 1043.911865,478.144714 1043.911865,482.684418 
	C1052.121948,483.331024 1052.108521,483.330963 1052.142212,475.988098 
	C1052.151245,473.996796 1052.267578,472.005920 1052.708374,470.024689 
	C1064.892822,474.058472 1076.942871,473.692535 1089.094849,472.393555 
	C1089.980957,483.147369 1097.412354,484.764374 1106.272949,481.405762 
	C1106.182007,479.727905 1106.086670,477.971344 1105.993896,476.259308 
	C1098.511230,475.503632 1098.111938,475.131683 1098.335205,469.040833 
	C1104.986572,472.263977 1111.456177,471.078827 1118.000122,470.459839 
	C1118.079834,474.509827 1118.079834,478.103241 1118.079834,481.710632 
	C1121.268066,481.710632 1123.803711,481.710632 1126.898804,481.710632 
	C1126.898804,478.232208 1126.898804,475.113464 1127.372314,471.995209 
	C1132.559570,471.997314 1137.273315,471.998901 1142.074219,472.449890 
	C1142.161255,475.835114 1142.161255,478.770996 1142.161255,481.712097 
	C1145.408325,481.712097 1147.960571,481.712097 1151.005493,481.712097 
	C1151.005493,473.233093 1151.005493,465.116699 1151.459473,457.001831 
	C1154.646851,457.038544 1157.380371,457.073639 1160.080078,457.560516 
	C1160.080933,460.001068 1160.128174,461.989746 1160.147949,463.978668 
	C1160.262695,475.489807 1167.208496,482.633270 1178.672363,482.809601 
	C1181.303101,482.850067 1183.971313,482.471161 1186.572510,482.006287 
	C1191.819336,481.068604 1192.140991,480.243561 1189.719238,475.282227 
	C1186.571899,475.624725 1183.471191,476.187256 1180.360840,476.248108 
	C1175.630249,476.340729 1171.435913,475.169312 1170.149902,469.998566 
	C1172.380249,470.338135 1174.160156,470.885590 1175.959961,470.960510 
	C1193.367432,471.685455 1210.773071,472.575714 1228.189331,472.942169 
	C1254.466553,473.495087 1280.751709,473.856689 1307.033936,473.894012 
	C1315.907227,473.906616 1324.782471,472.686401 1333.656738,472.029602 
	C1333.709351,479.051697 1333.761963,486.073792 1333.361816,493.565643 
	C1329.237549,494.690247 1325.565063,495.898132 1321.894531,495.892548 
	C1312.274536,495.877960 1302.657837,495.182129 1293.035400,495.029999 
	C1266.593140,494.612030 1240.148682,494.335907 1213.705078,493.999359 
	C1187.761108,493.669189 1161.817871,493.279633 1135.873169,493.013550 
	C1098.436035,492.629608 1060.997437,492.388702 1023.560791,491.971893 
	C1009.275269,491.812866 994.993896,491.086884 980.709534,491.050385 
	C933.069214,490.928619 885.428406,490.985870 837.788025,491.088684 
	C836.515320,491.091431 835.245544,492.399475 833.974426,493.098816 
	C830.263855,488.467346 826.553223,483.835876 822.441895,478.667023 
	C822.081665,471.756836 822.122253,465.384003 822.555603,459.019348 
	C827.302124,459.684723 831.655945,460.341949 836.084351,461.462891 
	C836.159058,468.523071 836.159058,475.119537 836.159058,481.905396 
	C838.550354,481.905396 841.183899,482.709930 842.328186,481.746216 
	C845.138977,479.378815 847.086304,480.445892 849.771606,481.766144 
	C856.432800,485.041260 865.760315,482.229065 868.762939,475.245087 
	C870.898926,470.276703 871.043701,464.452209 872.077148,459.009827 
z"/>
<path fill="#313131" opacity="1.000000" stroke="none" 
	d="
M1300.456299,687.141235 
	C1298.722046,682.445618 1294.786865,683.068481 1291.480957,683.053772 
	C1269.162476,682.954590 1246.842651,683.097900 1224.524292,682.981995 
	C1171.932861,682.708740 1119.341797,682.387756 1066.751221,681.978271 
	C1040.642212,681.775024 1014.532104,681.468201 988.429504,680.889343 
	C983.102295,680.771179 977.764709,679.412170 972.522583,678.224915 
	C970.994629,677.878906 969.509033,676.358093 968.468018,675.015869 
	C962.987793,667.949646 957.656189,660.768250 952.604248,653.313599 
	C964.382080,653.333435 975.826782,653.795959 987.275879,653.973450 
	C1014.039246,654.388306 1040.804810,654.667358 1067.569458,654.999634 
	C1094.500610,655.334045 1121.431152,655.751343 1148.363159,655.980713 
	C1195.440308,656.381714 1242.518433,656.666809 1289.596069,656.998840 
	C1290.928101,657.008240 1292.267578,656.909790 1293.590576,657.019531 
	C1296.055542,657.223877 1298.530762,657.894836 1300.966797,657.756714 
	C1311.842896,657.139893 1323.082764,660.702515 1333.530518,655.031616 
	C1334.887695,673.851135 1318.255005,688.781433 1300.456299,687.141235 
z"/>
<path fill="#4E4E4E" opacity="1.000000" stroke="none" 
	d="
M1003.524292,533.005310 
	C1010.246277,533.670227 1016.965454,534.875977 1023.690613,534.910095 
	C1060.731689,535.098145 1097.774780,534.874451 1134.815918,535.041199 
	C1162.577148,535.166138 1190.336792,535.656006 1218.096924,536.004395 
	C1243.360107,536.321533 1268.623779,536.623657 1293.885498,537.036133 
	C1299.008667,537.119690 1304.139648,538.089783 1309.239380,537.902039 
	C1317.121582,537.611694 1324.979980,536.675903 1333.221680,536.015747 
	C1333.660400,548.716553 1333.725586,561.415527 1333.325195,574.579956 
	C1329.360352,575.696228 1325.859009,576.907104 1322.362671,576.892761 
	C1311.759277,576.848938 1301.159424,576.137024 1290.555176,576.041443 
	C1273.093750,575.883972 1255.629639,576.005676 1238.067139,575.623901 
	C1231.768433,543.556641 1199.330444,543.029724 1182.643311,556.022949 
	C1175.405518,556.530579 1168.504272,558.175415 1162.108154,553.586914 
	C1161.955811,551.701294 1161.880493,550.239990 1161.795410,548.590088 
	C1150.076782,546.797546 1142.847412,552.832520 1136.905640,562.699829 
	C1136.417480,557.944153 1136.033203,554.200562 1135.637085,550.341370 
	C1130.590698,550.341370 1125.560913,550.341370 1121.762329,550.341370 
	C1121.762329,558.775024 1121.808350,566.867126 1121.749634,574.958496 
	C1121.689209,583.278870 1121.526733,591.598450 1120.922974,599.932007 
	C1115.638184,599.632324 1110.839233,599.319092 1106.000000,598.571655 
	C1106.186523,596.492798 1106.442017,594.851318 1106.635376,593.202637 
	C1108.246216,579.480347 1104.050171,559.000366 1087.334839,552.329712 
	C1082.981934,550.592590 1078.298096,549.160461 1073.664307,548.756592 
	C1062.975464,547.825073 1052.392456,548.804443 1044.584839,557.320801 
	C1040.575195,561.694336 1037.649170,567.061035 1033.817871,571.989136 
	C1023.498291,575.139954 1013.593689,574.863403 1003.540649,571.576233 
	C1003.392822,568.525574 1003.392822,565.905151 1003.392822,562.617859 
	C1009.864441,562.617859 1015.891235,562.617859 1021.866943,562.617859 
	C1021.866943,558.027771 1021.866943,554.118713 1021.866943,549.782104 
	C1015.650452,549.782104 1009.738708,549.782104 1003.524292,549.782104 
	C1003.524292,543.899170 1003.524292,538.452209 1003.524292,533.005310 
z"/>
<path fill="#595959" opacity="1.000000" stroke="none" 
	d="
M834.113037,493.402588 
	C835.245544,492.399475 836.515320,491.091431 837.788025,491.088684 
	C885.428406,490.985870 933.069214,490.928619 980.709534,491.050385 
	C994.993896,491.086884 1009.275269,491.812866 1023.560791,491.971893 
	C1060.997437,492.388702 1098.436035,492.629608 1135.873169,493.013550 
	C1161.817871,493.279633 1187.761108,493.669189 1213.705078,493.999359 
	C1240.148682,494.335907 1266.593140,494.612030 1293.035400,495.029999 
	C1302.657837,495.182129 1312.274536,495.877960 1321.894531,495.892548 
	C1325.565063,495.898132 1329.237549,494.690247 1333.274414,494.027130 
	C1333.697388,499.382355 1333.755005,504.745880 1333.711426,510.571716 
	C1321.870117,514.341553 1310.007812,513.315125 1298.132690,512.068054 
	C1296.648804,511.912262 1295.137695,512.002380 1293.639160,512.002136 
	C1272.489624,511.999023 1251.338989,512.126221 1230.190674,511.968536 
	C1202.753784,511.763916 1175.318481,511.342438 1147.882690,510.997070 
	C1122.445068,510.676880 1097.007812,510.325043 1071.570190,510.003571 
	C1044.300903,509.658966 1017.031189,509.353546 989.762146,508.993561 
	C966.822266,508.690704 943.882996,508.333344 920.943481,508.001465 
	C897.837402,507.667175 874.731567,507.316315 851.624817,507.034180 
	C849.668030,507.010254 847.705627,507.450897 845.360229,507.845093 
	C841.400330,503.245087 837.825989,498.475708 834.113037,493.402588 
z"/>
<path fill="#363636" opacity="1.000000" stroke="none" 
	d="
M1333.637451,654.571411 
	C1323.082764,660.702515 1311.842896,657.139893 1300.966797,657.756714 
	C1298.530762,657.894836 1296.055542,657.223877 1293.590576,657.019531 
	C1292.267578,656.909790 1290.928101,657.008240 1289.596069,656.998840 
	C1242.518433,656.666809 1195.440308,656.381714 1148.363159,655.980713 
	C1121.431152,655.751343 1094.500610,655.334045 1067.569458,654.999634 
	C1040.804810,654.667358 1014.039246,654.388306 987.275879,653.973450 
	C975.826782,653.795959 964.382080,653.333435 952.466492,653.001465 
	C946.657654,645.977966 941.289185,638.974731 936.027649,631.892090 
	C935.563721,631.267578 935.798523,630.123901 936.246521,628.948059 
	C937.532837,628.269897 938.281433,627.865112 939.381958,627.658752 
	C940.051147,629.367188 940.368286,630.877136 940.739807,632.645874 
	C941.561096,632.750793 942.521423,632.961670 943.486023,632.983521 
	C959.095886,633.336365 974.705017,633.743774 990.316772,633.981873 
	C1016.416382,634.380005 1042.516846,634.804749 1068.618408,634.972595 
	C1133.349365,635.389038 1198.081177,635.672852 1262.812622,635.993408 
	C1272.470093,636.041199 1282.128052,635.994568 1291.785767,636.006409 
	C1293.115112,636.007996 1294.444824,636.088745 1295.773926,636.144226 
	C1308.432983,636.673401 1321.224609,639.577209 1333.544189,634.032349 
	C1333.610962,640.725281 1333.677612,647.418274 1333.637451,654.571411 
z"/>
<path fill="#3C3C3C" opacity="1.000000" stroke="none" 
	d="
M1333.650146,633.571899 
	C1321.224609,639.577209 1308.432983,636.673401 1295.773926,636.144226 
	C1294.444824,636.088745 1293.115112,636.007996 1291.785767,636.006409 
	C1282.128052,635.994568 1272.470093,636.041199 1262.812622,635.993408 
	C1198.081177,635.672852 1133.349365,635.389038 1068.618408,634.972595 
	C1042.516846,634.804749 1016.416382,634.380005 990.316772,633.981873 
	C974.705017,633.743774 959.095886,633.336365 943.486023,632.983521 
	C942.521423,632.961670 941.561096,632.750793 940.739807,632.645874 
	C940.368286,630.877136 940.051147,629.367188 939.734253,627.461487 
	C952.679443,624.124878 961.889038,617.092651 965.718262,603.820129 
	C968.868591,606.578674 972.166870,607.742737 975.880554,606.950134 
	C979.507324,606.176086 983.051208,605.014038 986.739075,604.453918 
	C988.149658,624.952881 1002.153625,633.800171 1020.750732,626.272095 
	C1020.750732,622.347351 1020.750732,618.412415 1020.750732,614.512634 
	C1016.634033,614.029846 1012.524719,614.233276 1008.948853,612.950073 
	C1004.748718,611.442810 1003.813293,607.254089 1004.355408,603.020691 
	C1014.253418,602.672485 1023.674744,602.332520 1033.336426,602.288391 
	C1034.305664,609.025696 1038.453369,613.534607 1042.522949,617.992432 
	C1054.003052,630.567810 1076.562988,631.880554 1090.403320,622.305542 
	C1098.781006,616.509644 1103.215698,608.372498 1106.040405,599.005798 
	C1110.839233,599.319092 1115.638184,599.632324 1121.024414,600.387451 
	C1121.645020,605.634705 1121.698364,610.439941 1121.707275,615.245300 
	C1121.731445,628.223145 1121.721924,628.123718 1134.577393,627.851501 
	C1137.832153,627.782593 1138.996704,626.641724 1138.943237,623.472168 
	C1138.859619,618.508484 1139.055542,613.540100 1139.555420,608.703613 
	C1151.383301,613.783142 1162.808472,613.648926 1174.498901,609.183960 
	C1178.791992,617.333557 1185.133545,622.737732 1193.412598,625.725952 
	C1203.374146,629.321472 1213.744385,628.166687 1223.961060,627.437805 
	C1227.055908,627.216919 1231.260620,625.911804 1232.693726,623.661743 
	C1234.162842,621.355164 1232.860107,617.283081 1233.156250,614.016296 
	C1236.948975,616.861511 1240.904419,617.094971 1245.157471,617.066101 
	C1266.988037,616.917908 1288.821289,617.129211 1310.651001,616.926636 
	C1318.357178,616.855164 1326.423584,618.819641 1333.576782,614.043762 
	C1333.636597,620.399658 1333.696289,626.755493 1333.650146,633.571899 
z"/>
<path fill="#444444" opacity="1.000000" stroke="none" 
	d="
M1333.681396,613.581665 
	C1326.423584,618.819641 1318.357178,616.855164 1310.651001,616.926636 
	C1288.821289,617.129211 1266.988037,616.917908 1245.157471,617.066101 
	C1240.904419,617.094971 1236.948975,616.861511 1232.930298,613.738159 
	C1230.969482,613.191284 1229.592529,612.650635 1228.275513,612.770264 
	C1221.372314,613.397278 1214.456787,614.989807 1207.596802,614.754822 
	C1194.896240,614.319702 1185.773682,603.641846 1187.813721,592.191467 
	C1204.439209,592.191467 1221.154419,592.191467 1238.166748,592.191467 
	C1238.166748,586.487427 1238.166748,581.248596 1238.166748,576.009766 
	C1255.629639,576.005676 1273.093750,575.883972 1290.555176,576.041443 
	C1301.159424,576.137024 1311.759277,576.848938 1322.362671,576.892761 
	C1325.859009,576.907104 1329.360352,575.696228 1333.223877,575.039795 
	C1333.654175,587.729248 1333.720215,600.424438 1333.681396,613.581665 
z"/>
<path fill="#676767" opacity="1.000000" stroke="none" 
	d="
M1160.113892,457.108765 
	C1157.380371,457.073639 1154.646851,457.038544 1151.244141,456.696960 
	C1148.053101,446.285309 1142.767578,442.362518 1133.801025,444.332214 
	C1131.403687,444.858826 1129.223022,446.371735 1126.902588,447.450562 
	C1126.902588,442.600098 1126.902588,437.796997 1126.902588,432.993896 
	C1156.856201,433.329315 1186.809448,433.710785 1216.763672,433.979401 
	C1230.371216,434.101440 1243.982056,433.880737 1257.589111,434.027496 
	C1278.878418,434.257111 1300.165283,434.771576 1321.454712,434.903351 
	C1325.290894,434.927094 1329.135132,433.689697 1333.345825,433.030762 
	C1333.758789,440.048767 1333.801392,447.070587 1333.399536,454.562195 
	C1328.414551,455.687958 1323.878906,456.845367 1319.332642,456.888336 
	C1311.550171,456.961853 1303.763916,456.181488 1295.974121,456.033783 
	C1261.585815,455.381805 1227.195679,454.827576 1192.815674,454.212952 
	C1192.825195,454.187958 1192.870728,454.214722 1192.831299,453.971436 
	C1192.669434,453.403687 1192.450806,453.168945 1191.979736,452.712097 
	C1188.994385,447.635406 1185.390869,444.406464 1179.366943,443.923126 
	C1169.856567,443.160034 1164.222290,447.615143 1160.737183,456.138031 
	C1160.364502,456.554199 1160.207520,456.843658 1160.055176,457.098267 
	C1160.059814,457.063446 1160.113892,457.108765 1160.113892,457.108765 
z"/>
<path fill="#626262" opacity="1.000000" stroke="none" 
	d="
M1192.806274,454.237976 
	C1227.195679,454.827576 1261.585815,455.381805 1295.974121,456.033783 
	C1303.763916,456.181488 1311.550171,456.961853 1319.332642,456.888336 
	C1323.878906,456.845367 1328.414551,455.687958 1333.323486,455.025787 
	C1333.742310,460.380585 1333.792480,465.741516 1333.749756,471.566040 
	C1324.782471,472.686401 1315.907227,473.906616 1307.033936,473.894012 
	C1280.751709,473.856689 1254.466553,473.495087 1228.189331,472.942169 
	C1210.773071,472.575714 1193.367432,471.685455 1175.959961,470.960510 
	C1174.160156,470.885590 1172.380249,470.338135 1170.135254,469.905029 
	C1169.679443,469.800110 1169.763306,469.629761 1169.910400,469.301941 
	C1170.704224,467.817200 1171.350708,466.660278 1172.454590,465.401245 
	C1179.745972,465.299164 1186.579712,465.299164 1194.176758,465.299164 
	C1193.639404,460.962372 1193.222778,457.600189 1192.806274,454.237976 
z"/>
<path fill="#FDFDFD" opacity="1.000000" stroke="none" 
	d="
M386.558777,483.513062 
	C400.723114,473.726196 415.479279,471.362244 431.317749,477.885284 
	C432.087280,478.202240 432.924866,478.388245 433.642303,478.792267 
	C442.966522,484.043060 452.081512,483.539337 461.677338,478.956146 
	C472.257660,473.902710 483.506500,472.267578 495.240082,474.822937 
	C507.170166,477.421112 516.736511,483.417023 524.195312,493.766174 
	C509.911407,503.901672 501.189423,517.263306 502.291504,535.297302 
	C503.395142,553.356689 513.002686,565.973083 529.651428,574.239319 
	C528.443665,577.494690 527.713013,580.981873 525.979492,583.866211 
	C519.485229,594.671387 513.433472,605.872803 505.775696,615.816589 
	C495.429077,629.251770 484.077667,631.380371 468.598145,624.411621 
	C459.789612,620.446167 450.795074,618.925659 441.391113,621.198669 
	C437.544098,622.128601 433.829895,623.699219 430.148254,625.205444 
	C416.005768,630.991333 407.256958,629.392334 396.929291,618.059326 
	C379.793945,599.255981 369.086090,577.207153 364.970001,552.053467 
	C362.934814,539.616394 362.793243,527.181030 365.948639,514.884277 
	C369.196045,502.228882 375.677856,491.622589 386.558777,483.513062 
z"/>
<path fill="#FAFAFA" opacity="1.000000" stroke="none" 
	d="
M810.974609,657.009277 
	C805.401978,657.385864 799.829346,657.762451 793.628906,658.181458 
	C793.628906,621.791260 793.628906,586.065796 793.628906,550.112488 
	C798.165100,550.112488 802.919006,550.112488 807.860046,550.112488 
	C808.250977,553.778442 808.626465,557.299500 809.109436,561.828674 
	C814.561096,554.307922 820.864807,550.022278 829.253479,548.745544 
	C842.305115,546.759094 852.508972,551.119995 860.003540,561.797302 
	C870.672729,576.997314 868.969238,604.146667 856.631836,617.910645 
	C845.630859,630.183716 826.995483,632.017151 813.778381,621.690186 
	C812.688843,620.578247 812.080261,619.855774 811.026428,618.604736 
	C811.026428,620.161865 811.026428,621.077576 811.026428,621.993286 
	C810.947144,633.028625 810.867920,644.063904 810.843689,655.801514 
	C810.924072,656.672302 810.949341,656.840759 810.974609,657.009277 
M813.871094,606.427612 
	C823.142151,618.982605 839.386292,617.934998 846.091003,603.920044 
	C851.133850,593.379089 851.088318,582.328125 845.754578,571.748047 
	C842.401001,565.095886 836.649597,561.653015 829.122681,561.991882 
	C821.468750,562.336426 815.434265,566.057495 812.970215,573.281616 
	C809.310059,584.012329 809.130432,595.018372 813.871094,606.427612 
z"/>
<path fill="#FAFAFA" opacity="1.000000" stroke="none" 
	d="
M704.941101,656.018127 
	C704.941101,620.911987 704.941101,585.805786 704.941101,550.293579 
	C709.550964,550.293579 714.425232,550.293579 719.615112,550.293579 
	C719.970032,553.590271 720.337341,557.001648 720.701111,560.380371 
	C721.256470,560.419250 721.720154,560.568237 721.814636,560.441711 
	C730.065857,549.387085 741.354919,546.218079 754.158264,549.236633 
	C767.170837,552.304565 774.136963,561.992859 777.100769,574.390381 
	C780.336487,587.924683 779.421448,601.214478 771.767700,613.347290 
	C764.140991,625.437195 749.915588,631.292969 736.244751,627.401978 
	C731.537476,626.062134 727.377014,622.801147 722.580200,620.208923 
	C722.580200,632.341553 722.580200,644.842773 722.580200,657.550537 
	C716.488159,657.550537 711.049194,657.550537 705.332275,657.026367 
	C705.054199,656.502197 704.941101,656.018127 704.941101,656.018127 
M750.143799,564.086182 
	C737.025574,558.575867 724.507751,565.316895 722.877808,579.304932 
	C722.113403,585.865051 722.307312,592.636597 722.924988,599.231995 
	C723.659485,607.075378 729.863586,613.247620 737.216003,614.663635 
	C745.187805,616.198792 752.875916,613.022583 756.716553,605.802612 
	C758.704956,602.064514 760.267395,597.771301 760.692139,593.593689 
	C761.816467,582.535217 761.010193,571.818359 750.143799,564.086182 
z"/>
<path fill="#FAFAFA" opacity="1.000000" stroke="none" 
	d="
M682.923035,626.770081 
	C679.292297,626.770081 676.138245,626.770081 672.473755,626.770081 
	C669.581177,617.742676 666.524780,608.823730 663.923767,599.773865 
	C662.917358,596.272278 661.380920,595.076233 657.715637,595.198669 
	C649.062134,595.487732 640.390320,595.399658 631.730530,595.229370 
	C628.935425,595.174377 627.596375,595.986572 626.823303,598.779236 
	C624.561157,606.950562 621.910889,615.013794 619.586121,623.168823 
	C618.844482,625.770447 617.798279,627.052185 614.801025,626.848206 
	C610.338989,626.544495 605.840942,626.769470 600.586609,626.769470 
	C612.154358,590.847717 623.545471,555.474731 634.866516,520.319092 
	C635.487000,520.192444 635.650085,520.130005 635.813110,520.130066 
	C642.305481,520.133545 650.361938,517.813232 654.840759,520.820496 
	C659.134644,523.703613 659.919739,532.049377 661.893982,538.109314 
	C671.063049,566.253723 680.111938,594.437317 689.191833,622.610779 
	C689.582886,623.824097 689.855347,625.075684 690.305420,626.770081 
	C687.672729,626.770081 685.536194,626.770081 682.923035,626.770081 
M637.678345,561.184631 
	C635.472961,568.009338 633.267578,574.833984 631.010498,581.818787 
	C640.786743,581.818787 649.810730,581.818787 659.065491,581.818787 
	C654.295654,566.374756 649.635437,551.285706 644.740784,535.437439 
	C642.314575,544.263733 640.095947,552.335022 637.678345,561.184631 
z"/>
<path fill="#FAFAFA" opacity="1.000000" stroke="none" 
	d="
M965.308105,603.717896 
	C961.889038,617.092651 952.679443,624.124878 939.382324,627.263000 
	C938.281433,627.865112 937.532837,628.269897 936.533142,628.776978 
	C934.431335,628.644897 932.576233,628.179871 930.730591,628.214355 
	C920.015076,628.414429 909.516296,627.726929 899.639893,621.480347 
	C900.899231,616.971558 902.166809,612.433350 903.333435,608.256592 
	C909.464539,610.038940 915.295776,611.734192 921.910522,613.601929 
	C926.661377,613.634216 930.693909,613.895569 934.581909,613.265259 
	C941.483948,612.146545 946.674683,608.561218 948.145142,601.231812 
	C949.624146,593.859436 946.751221,587.813965 939.584290,583.763977 
	C935.554565,581.486816 931.178406,579.803772 926.901428,577.986938 
	C917.073975,573.812256 908.247070,568.462891 903.250000,558.320374 
	C903.264832,558.173706 903.023499,558.004395 903.021667,557.750977 
	C902.947083,557.345154 902.874329,557.192688 902.767090,556.654175 
	C899.977844,547.317627 901.992981,539.047913 906.322937,531.108582 
	C919.722534,515.600037 944.974426,514.834900 961.546143,523.896790 
	C960.670532,526.929382 959.769592,530.049377 958.619141,533.821411 
	C957.974792,537.587402 956.406860,536.644836 954.188049,536.189331 
	C947.425293,534.800903 940.548584,533.100769 933.718689,533.111389 
	C923.821289,533.126709 917.769714,540.035461 918.753967,548.490234 
	C919.372803,553.806274 922.595947,557.341064 927.052673,559.589417 
	C934.444336,563.318359 942.035400,566.652100 949.764404,570.427002 
	C962.276672,578.373718 967.542725,589.305420 965.308105,603.717896 
z"/>
<path fill="#444444" opacity="1.000000" stroke="none" 
	d="
M903.235229,558.467041 
	C908.247070,568.462891 917.073975,573.812256 926.901428,577.986938 
	C931.178406,579.803772 935.554565,581.486816 939.584290,583.763977 
	C946.751221,587.813965 949.624146,593.859436 948.145142,601.231812 
	C946.674683,608.561218 941.483948,612.146545 934.581909,613.265259 
	C930.693909,613.895569 926.661377,613.634216 922.328979,613.598206 
	C915.128479,603.939758 908.321472,594.436707 901.447998,584.982056 
	C896.027405,577.525879 890.524780,570.129395 885.485352,562.355591 
	C889.726562,562.003052 893.600098,562.398926 897.332031,561.843506 
	C899.421021,561.532532 901.275269,559.644531 903.235229,558.467041 
z"/>
<path fill="#FAFAFA" opacity="1.000000" stroke="none" 
	d="
M487.206879,430.676575 
	C485.101135,454.204254 466.134521,472.948761 446.695435,471.091522 
	C442.487549,450.661102 464.000427,425.493042 487.237518,424.493988 
	C487.237518,426.431549 487.237518,428.349976 487.206879,430.676575 
z"/>
<path fill="#676767" opacity="1.000000" stroke="none" 
	d="
M836.009644,460.999176 
	C831.655945,460.341949 827.302124,459.684723 822.467163,458.614410 
	C821.058716,447.613647 816.146545,443.250061 805.545227,443.891510 
	C802.795532,444.057892 800.085022,444.873047 797.356506,445.390198 
	C793.903259,440.222168 790.450012,435.054108 786.937988,429.556885 
	C789.651001,428.151886 792.423035,426.156219 795.194763,426.156525 
	C808.568176,426.157867 821.941589,426.696686 835.757568,427.535522 
	C836.136658,439.017151 836.073181,450.008179 836.009644,460.999176 
z"/>
<path fill="#F5F5F5" opacity="1.000000" stroke="none" 
	d="
M644.266235,477.881775 
	C643.032043,474.040985 641.933960,470.584412 640.781372,466.956390 
	C639.417603,466.956390 638.264038,466.962372 637.110596,466.955444 
	C624.298218,466.878662 624.137268,466.828552 620.410645,478.916687 
	C618.622253,484.717712 614.427185,480.955109 610.854919,482.352661 
	C611.287781,480.487213 611.481995,479.261200 611.856934,478.093170 
	C616.636230,463.204895 621.588318,448.369659 626.135193,433.411102 
	C627.249756,429.744354 629.491943,429.874542 632.189880,430.042999 
	C634.804138,430.206299 637.644592,429.028290 638.912964,433.175049 
	C643.681580,448.765717 648.834412,464.238770 653.820984,479.763092 
	C654.013306,480.361908 653.975159,481.034851 654.082947,482.029236 
	C650.482544,481.253052 645.648926,484.737762 644.266235,477.881775 
M629.177368,448.599945 
	C628.026855,452.330597 626.876343,456.061249 625.698364,459.881134 
	C630.376221,459.881134 634.536621,459.881134 638.953064,459.881134 
	C636.726562,452.494080 634.633545,445.549561 632.234619,437.590302 
	C631.147095,441.574432 630.293335,444.702209 629.177368,448.599945 
z"/>
<path fill="#4E4E4E" opacity="1.000000" stroke="none" 
	d="
M903.250000,558.320374 
	C901.275269,559.644531 899.421021,561.532532 897.332031,561.843506 
	C893.600098,562.398926 889.726562,562.003052 885.442444,562.009888 
	C877.393616,551.892273 869.814575,541.769653 862.087341,531.339966 
	C876.429932,531.038025 890.920776,531.043213 905.867310,531.078491 
	C901.992981,539.047913 899.977844,547.317627 902.632324,556.769043 
	C902.695923,557.514893 902.859680,557.759644 903.023438,558.004395 
	C903.023499,558.004395 903.264832,558.173706 903.250000,558.320374 
z"/>
<path fill="#F5F5F5" opacity="1.000000" stroke="none" 
	d="
M733.597412,470.984497 
	C733.598206,474.783203 733.598206,478.085358 733.598206,481.801910 
	C730.565918,481.726410 726.645325,484.239471 725.702942,478.926361 
	C723.256165,480.132080 721.030273,481.638794 718.573669,482.359833 
	C712.180237,484.236420 706.216248,481.526062 704.016235,476.098053 
	C701.710083,470.408020 704.061340,464.013214 709.949646,460.895905 
	C712.252441,459.676758 714.900146,458.997406 717.469421,458.426056 
	C719.857239,457.895050 722.349731,457.834900 724.776550,457.569580 
	C724.750061,449.552521 720.172058,448.085815 707.581848,452.063873 
	C707.064331,450.558319 706.544250,449.045349 705.911377,447.204315 
	C712.022949,443.457550 718.440735,442.869293 725.046692,444.781036 
	C730.262878,446.290588 732.875000,450.310669 733.255676,455.547546 
	C733.616394,460.509735 733.502014,465.506439 733.597412,470.984497 
M711.804749,471.407776 
	C713.095703,476.050598 715.527588,477.615356 719.600159,476.423798 
	C724.806580,474.900482 726.503906,470.490204 724.586487,463.467560 
	C715.636963,463.665253 713.408447,464.907928 711.804749,471.407776 
z"/>
<path fill="#F5F5F5" opacity="1.000000" stroke="none" 
	d="
M797.095154,445.595673 
	C800.085022,444.873047 802.795532,444.057892 805.545227,443.891510 
	C816.146545,443.250061 821.058716,447.613647 822.074463,458.606262 
	C822.122253,465.384003 822.081665,471.756836 822.121704,478.596069 
	C821.312134,480.069611 820.417969,481.917236 819.532776,481.912872 
	C817.550110,481.903168 815.571899,480.972015 812.470276,480.101105 
	C810.654358,480.697571 807.346130,482.357300 803.884277,482.790863 
	C798.280640,483.492645 793.613647,480.211273 792.210999,475.481323 
	C790.547974,469.873383 792.559448,464.107574 797.711121,461.279724 
	C800.096985,459.970001 803.010376,459.621124 806.392944,458.564941 
	C809.135925,458.026001 811.170410,457.758728 813.164185,457.496826 
	C812.842896,450.792297 810.205017,449.084381 802.837585,450.413940 
	C800.654053,450.907227 798.470581,451.400513 795.929260,451.974609 
	C795.580933,449.788330 792.470886,447.460815 797.095154,445.595673 
M811.330078,463.425598 
	C808.767639,463.974518 806.047241,464.152466 803.680054,465.160034 
	C800.212830,466.635803 798.882751,470.897461 800.668213,473.929810 
	C802.635681,477.271210 805.706787,477.337555 808.889282,476.072052 
	C813.890564,474.083252 815.332886,468.264465 811.330078,463.425598 
z"/>
<path fill="#F5F5F5" opacity="1.000000" stroke="none" 
	d="
M693.701050,451.846130 
	C690.281250,460.908295 686.801819,469.540802 683.781982,478.331238 
	C682.592529,481.793579 680.508484,482.015533 677.454895,482.211731 
	C674.009460,482.433075 673.354797,480.499115 672.463501,478.010986 
	C668.553955,467.096893 664.513306,456.229767 660.506287,445.307617 
	C668.516846,443.365936 668.812317,443.525360 671.074951,450.432098 
	C673.499878,457.834045 675.945923,465.229126 678.540588,473.106476 
	C680.876587,465.558563 683.061584,458.433624 685.288330,451.321716 
	C687.625671,443.856598 687.643127,443.862061 696.062500,444.974487 
	C695.298767,447.195465 694.562134,449.337616 693.701050,451.846130 
z"/>
<path fill="#F5F5F5" opacity="1.000000" stroke="none" 
	d="
M771.595337,427.767334 
	C774.239197,427.463440 776.553833,427.463440 779.214111,427.463440 
	C779.214111,445.642303 779.214111,463.691406 779.214111,481.914246 
	C776.588562,481.914246 774.129333,481.914246 771.265991,481.914246 
	C771.265991,463.918427 771.265991,445.994812 771.595337,427.767334 
z"/>
<path fill="#FAFAFA" opacity="1.000000" stroke="none" 
	d="
M747.985474,467.993134 
	C747.985474,460.048492 747.985474,452.602142 747.985474,444.839264 
	C750.763306,444.839264 753.191711,444.839264 756.028076,444.839264 
	C756.028076,457.079407 756.028076,469.400940 756.028076,481.900330 
	C753.507446,481.900330 751.060059,481.900330 747.985474,481.900330 
	C747.985474,477.332611 747.985474,472.911987 747.985474,467.993134 
z"/>
<path fill="#F5F5F5" opacity="1.000000" stroke="none" 
	d="
M747.784973,430.971313 
	C750.395935,427.974609 753.374207,427.540802 755.734436,430.113495 
	C756.848267,431.327484 757.318848,434.661041 756.455566,435.777435 
	C755.342163,437.217377 752.436279,438.274139 750.594910,437.930084 
	C747.233887,437.302124 746.475586,434.490540 747.784973,430.971313 
z"/>
<path fill="#6C6C6C" opacity="1.000000" stroke="none" 
	d="
M802.864990,450.762634 
	C810.205017,449.084381 812.842896,450.792297 813.164185,457.496826 
	C811.170410,457.758728 809.135925,458.026001 806.669312,458.289490 
	C805.122375,455.894226 804.007385,453.502777 802.864990,450.762634 
z"/>
<path fill="#000000" opacity="1.000000" stroke="none" 
	d="
M811.462646,621.971069 
	C811.026428,621.077576 811.026428,620.161865 811.026428,618.604736 
	C812.080261,619.855774 812.688843,620.578247 813.469849,621.620117 
	C813.061157,621.942688 812.480042,621.945801 811.462646,621.971069 
z"/>
<path fill="#000000" opacity="1.000000" stroke="none" 
	d="
M704.773315,656.101379 
	C704.941101,656.018127 705.054199,656.502197 705.018188,656.748108 
	C704.856567,656.724243 704.731018,656.454407 704.773315,656.101379 
z"/>
<path fill="#000000" opacity="1.000000" stroke="none" 
	d="
M811.122559,656.901794 
	C810.949341,656.840759 810.924072,656.672302 810.965271,656.257080 
	C811.191101,656.181946 811.359131,656.347107 811.496887,656.534546 
	C811.511719,656.554749 811.350281,656.704590 811.122559,656.901794 
z"/>
<path fill="#676767" opacity="1.000000" stroke="none" 
	d="
M969.854370,467.010254 
	C963.868591,467.672699 957.893250,468.466980 951.892822,468.947021 
	C948.425354,469.224426 944.887878,469.251801 941.443237,468.857056 
	C940.206482,468.715332 939.149353,467.006470 938.123901,465.226135 
	C938.942505,456.920380 937.941895,449.921143 930.558411,445.970947 
	C921.130310,440.926880 908.154724,444.143555 904.901367,459.007874 
	C901.267944,459.340179 897.634521,459.672485 893.472046,459.544861 
	C892.968018,448.721924 892.993042,438.358887 893.018066,427.995880 
	C897.285156,427.665894 901.556335,427.012329 905.818481,427.066589 
	C918.597412,427.229340 931.371033,427.787872 944.149902,427.965057 
	C955.967468,428.128967 967.789978,427.901947 979.608643,428.019806 
	C1006.869385,428.291626 1034.130005,428.614990 1061.388916,429.024902 
	C1074.833496,429.227020 1088.273315,429.790771 1101.718018,429.937073 
	C1106.830322,429.992706 1111.950439,429.336731 1117.567139,429.465881 
	C1118.014771,434.952301 1117.962280,439.977936 1117.481445,445.002869 
	C1113.723633,445.668793 1110.394165,446.335449 1106.966309,446.624237 
	C1104.001099,445.307770 1101.134033,444.369171 1097.873169,443.301666 
	C1097.738647,441.247070 1097.572754,438.715088 1097.364502,435.536987 
	C1094.249146,436.298401 1091.782471,436.901276 1089.389160,437.486206 
	C1089.269653,439.921478 1089.173706,441.877533 1089.067871,444.035126 
	C1087.301758,444.299164 1085.730591,444.534058 1082.729492,444.982758 
	C1084.007324,447.459473 1084.969849,449.324921 1085.945435,451.632874 
	C1085.904297,455.946686 1083.057739,456.110229 1080.386719,455.953888 
	C1070.895386,455.398346 1061.414795,454.663574 1051.722412,453.717041 
	C1048.893921,450.458191 1046.819824,446.177979 1043.528442,444.795013 
	C1038.161987,442.540131 1032.319336,443.708130 1027.719604,448.290771 
	C1026.122437,443.025543 1022.583984,445.534790 1019.546997,445.202301 
	C1019.427612,447.716278 1019.327393,449.825806 1018.800171,451.959930 
	C1014.576233,451.830322 1010.780090,451.640106 1006.981628,451.555054 
	C1006.295471,451.539703 1005.599731,451.956207 1004.608643,452.004364 
	C999.274597,441.415070 977.111572,440.330444 972.585327,453.700806 
	C971.144226,457.957611 970.735474,462.563873 969.854370,467.010254 
z"/>
<path fill="#F5F5F5" opacity="1.000000" stroke="none" 
	d="
M836.084351,461.462891 
	C836.073181,450.008179 836.136658,439.017151 836.230591,427.565918 
	C838.894104,427.105652 841.527222,427.105652 844.653503,427.105652 
	C844.653503,433.892731 844.653503,440.281403 844.653503,447.604431 
	C851.631287,444.277863 858.557068,441.186035 864.580139,446.394257 
	C867.926819,449.288208 869.484497,454.251099 871.962830,458.645660 
	C871.043701,464.452209 870.898926,470.276703 868.762939,475.245087 
	C865.760315,482.229065 856.432800,485.041260 849.771606,481.766144 
	C847.086304,480.445892 845.138977,479.378815 842.328186,481.746216 
	C841.183899,482.709930 838.550354,481.905396 836.159058,481.905396 
	C836.159058,475.119537 836.159058,468.523071 836.084351,461.462891 
M859.530640,474.254974 
	C864.606201,468.826050 864.591858,462.545319 862.139832,456.142090 
	C860.534973,451.951050 857.084656,450.044830 852.544739,450.732422 
	C847.974976,451.424591 845.585388,454.413910 844.998840,458.804230 
	C844.692688,461.096039 845.026672,463.467896 844.798279,465.776550 
	C844.046204,473.377502 851.587524,479.036896 859.530640,474.254974 
z"/>
<path fill="#F5F5F5" opacity="1.000000" stroke="none" 
	d="
M1117.909790,445.003571 
	C1117.962280,439.977936 1118.014771,434.952301 1117.990723,429.465332 
	C1120.468018,428.202545 1123.022095,427.401062 1126.333862,426.361786 
	C1126.516113,429.057983 1126.621338,430.615479 1126.814575,432.583435 
	C1126.902588,437.796997 1126.902588,442.600098 1126.902588,447.450562 
	C1129.223022,446.371735 1131.403687,444.858826 1133.801025,444.332214 
	C1142.767578,442.362518 1148.053101,446.285309 1150.790283,456.695374 
	C1151.005493,465.116699 1151.005493,473.233093 1151.005493,481.712097 
	C1147.960571,481.712097 1145.408325,481.712097 1142.161255,481.712097 
	C1142.161255,478.770996 1142.161255,475.835114 1142.168457,471.990662 
	C1142.153076,466.806427 1142.270508,462.523956 1142.063843,458.257141 
	C1141.893677,454.738770 1140.539185,451.659760 1136.636963,451.012451 
	C1132.827881,450.380585 1129.391724,451.110260 1127.644287,455.577454 
	C1127.291870,456.156799 1127.206177,456.562012 1126.989014,457.420013 
	C1126.871338,462.580109 1126.885010,467.287415 1126.898804,471.994720 
	C1126.898804,475.113464 1126.898804,478.232208 1126.898804,481.710632 
	C1123.803711,481.710632 1121.268066,481.710632 1118.079834,481.710632 
	C1118.079834,478.103241 1118.079834,474.509827 1118.086670,469.997742 
	C1118.032349,461.053894 1117.971069,453.028748 1117.909790,445.003571 
z"/>
<path fill="#FAFAFA" opacity="1.000000" stroke="none" 
	d="
M892.670532,427.789612 
	C892.993042,438.358887 892.968018,448.721924 893.032593,459.546814 
	C893.122253,467.114288 893.122253,474.219879 893.122253,481.690613 
	C890.098816,481.690613 887.580261,481.690613 884.437988,481.690613 
	C884.437988,475.274261 884.437988,469.015533 884.333130,462.358459 
	C884.228271,450.611908 884.228271,439.263672 884.228271,427.583344 
	C887.501526,427.583344 889.912292,427.583344 892.670532,427.789612 
z"/>
<path fill="#FAFAFA" opacity="1.000000" stroke="none" 
	d="
M1003.878723,603.028931 
	C1003.813293,607.254089 1004.748718,611.442810 1008.948853,612.950073 
	C1012.524719,614.233276 1016.634033,614.029846 1020.750732,614.512634 
	C1020.750732,618.412415 1020.750732,622.347351 1020.750732,626.272095 
	C1002.153625,633.800171 988.149658,624.952881 986.822266,603.990540 
	C986.710999,592.068604 986.624084,581.041626 986.641968,569.593140 
	C986.673218,567.443237 986.599609,565.714844 986.545227,563.692017 
	C986.039490,563.252136 985.514648,563.106750 984.553345,562.853394 
	C981.360901,562.745300 978.604858,562.745300 975.588501,562.745300 
	C975.588501,558.206726 975.588501,554.325378 975.588501,549.859070 
	C979.264099,549.859070 982.799744,549.859070 986.723877,549.859070 
	C986.723877,544.860657 986.723877,540.433533 986.723877,536.006409 
	C991.672058,534.412781 996.609192,532.782532 1001.586975,531.287476 
	C1002.035339,531.152832 1002.745544,531.890198 1003.429199,532.613892 
	C1003.524292,538.452209 1003.524292,543.899170 1003.524292,549.782104 
	C1009.738708,549.782104 1015.650452,549.782104 1021.866943,549.782104 
	C1021.866943,554.118713 1021.866943,558.027771 1021.866943,562.617859 
	C1015.891235,562.617859 1009.864441,562.617859 1003.392822,562.617859 
	C1003.392822,565.905151 1003.392822,568.525574 1003.409607,572.027710 
	C1003.577148,582.949280 1003.727905,592.989136 1003.878723,603.028931 
z"/>
<path fill="#4E4E4E" opacity="1.000000" stroke="none" 
	d="
M986.319580,536.022217 
	C986.723877,540.433533 986.723877,544.860657 986.723877,549.859070 
	C982.799744,549.859070 979.264099,549.859070 975.588501,549.859070 
	C975.588501,554.325378 975.588501,558.206726 975.588501,562.745300 
	C978.604858,562.745300 981.360901,562.745300 984.666992,563.071960 
	C985.653381,563.594543 986.089722,563.790466 986.526123,563.986450 
	C986.599609,565.714844 986.673218,567.443237 986.203796,569.590698 
	C976.362122,570.005676 967.063354,569.989807 957.764648,570.004822 
	C955.023865,570.009216 952.283142,570.100708 949.542419,570.152283 
	C942.035400,566.652100 934.444336,563.318359 927.052673,559.589417 
	C922.595947,557.341064 919.372803,553.806274 918.753967,548.490234 
	C917.769714,540.035461 923.821289,533.126709 933.718689,533.111389 
	C940.548584,533.100769 947.425293,534.800903 954.188049,536.189331 
	C956.406860,536.644836 957.974792,537.587402 958.612976,534.207520 
	C961.107666,534.961121 963.345337,536.807068 965.612915,536.844604 
	C972.374084,536.956482 979.146912,536.358643 986.319580,536.022217 
z"/>
<path fill="#FAFAFA" opacity="1.000000" stroke="none" 
	d="
M969.947388,467.381348 
	C970.735474,462.563873 971.144226,457.957611 972.585327,453.700806 
	C977.111572,440.330444 999.274597,441.415070 1004.650574,452.385254 
	C1008.015137,458.781891 1007.299011,464.885590 1006.234802,471.013214 
	C1002.506836,479.224091 996.304810,483.609589 987.126343,482.863556 
	C977.765381,482.102661 972.684631,476.241516 969.947388,467.381348 
M981.715271,472.604950 
	C987.488586,478.873016 995.121277,477.769714 997.349487,469.681061 
	C998.542114,465.351715 997.849182,460.228088 996.932007,455.679688 
	C996.204224,452.069611 992.943848,450.033051 988.984985,450.027527 
	C985.034119,450.022034 982.405396,452.135223 980.835754,455.601654 
	C978.342041,461.108795 978.536438,466.583282 981.715271,472.604950 
z"/>
<path fill="#F5F5F5" opacity="1.000000" stroke="none" 
	d="
M905.008911,459.403259 
	C908.154724,444.143555 921.130310,440.926880 930.558411,445.970947 
	C937.941895,449.921143 938.942505,456.920380 938.135437,464.816589 
	C929.953308,465.193695 921.873291,465.193695 913.756653,465.193695 
	C914.263977,473.579102 918.129639,476.632446 925.387451,475.405640 
	C927.346069,475.074585 929.365295,475.054169 931.359619,475.000366 
	C932.651428,474.965515 933.948486,475.128906 935.106750,475.195618 
	C937.070068,479.663635 935.541504,481.892639 931.178345,482.028748 
	C926.573303,482.172424 921.794922,482.730774 917.380859,481.775085 
	C908.312378,479.811707 902.187805,468.218201 905.008911,459.403259 
M922.470520,449.762573 
	C916.530029,450.657166 914.481750,452.800232 913.945740,458.918396 
	C919.321594,458.918396 924.671265,458.918396 930.199829,458.918396 
	C930.173523,453.787079 928.342468,450.557739 922.470520,449.762573 
z"/>
<path fill="#F5F5F5" opacity="1.000000" stroke="none" 
	d="
M1169.763306,469.629761 
	C1169.763306,469.629761 1169.679443,469.800110 1169.694092,469.893677 
	C1171.435913,475.169312 1175.630249,476.340729 1180.360840,476.248108 
	C1183.471191,476.187256 1186.571899,475.624725 1189.719238,475.282227 
	C1192.140991,480.243561 1191.819336,481.068604 1186.572510,482.006287 
	C1183.971313,482.471161 1181.303101,482.850067 1178.672363,482.809601 
	C1167.208496,482.633270 1160.262695,475.489807 1160.147949,463.978668 
	C1160.128174,461.989746 1160.080933,460.001068 1160.080078,457.560547 
	C1160.113892,457.108765 1160.059814,457.063446 1160.317139,457.008209 
	C1160.700562,456.639069 1160.826660,456.325195 1160.952759,456.011322 
	C1164.222290,447.615143 1169.856567,443.160034 1179.366943,443.923126 
	C1185.390869,444.406464 1188.994385,447.635406 1191.966309,452.975769 
	C1192.363037,453.772430 1192.616821,453.993591 1192.870728,454.214722 
	C1192.870728,454.214722 1192.825195,454.187958 1192.815674,454.212952 
	C1193.222778,457.600189 1193.639404,460.962372 1194.176758,465.299164 
	C1186.579712,465.299164 1179.745972,465.299164 1172.069092,465.309326 
	C1167.268677,465.578796 1168.663208,467.654266 1169.763306,469.629761 
M1181.173096,459.293030 
	C1182.584595,459.191376 1183.996094,459.089722 1185.414429,458.987610 
	C1184.775269,452.143860 1181.920898,449.312775 1176.582397,449.800842 
	C1172.006104,450.219238 1169.076294,453.951721 1169.453979,459.293030 
	C1173.029541,459.293030 1176.640869,459.293030 1181.173096,459.293030 
z"/>
<path fill="#FAFAFA" opacity="1.000000" stroke="none" 
	d="
M1019.227173,451.935333 
	C1019.327393,449.825806 1019.427612,447.716278 1019.546997,445.202301 
	C1022.583984,445.534790 1026.122437,443.025543 1027.719604,448.290771 
	C1032.319336,443.708130 1038.161987,442.540131 1043.528442,444.795013 
	C1046.819824,446.177979 1048.893921,450.458191 1051.714844,454.184509 
	C1052.054932,459.959351 1052.194946,464.987122 1052.334717,470.014862 
	C1052.267578,472.005920 1052.151245,473.996796 1052.142212,475.988098 
	C1052.108521,483.330963 1052.121948,483.331024 1043.911865,482.684418 
	C1043.911865,478.144714 1043.911865,473.542480 1043.923340,468.023682 
	C1043.924683,464.276825 1044.119385,461.427307 1043.855957,458.620819 
	C1043.470215,454.512177 1041.928589,451.150055 1037.083252,450.785339 
	C1032.644897,450.451294 1029.046753,453.138885 1028.348511,457.898315 
	C1027.921143,460.811981 1028.318237,463.846619 1028.344971,466.826904 
	C1028.263794,469.953918 1028.175537,473.080750 1028.103149,476.207947 
	C1027.935303,483.478455 1027.902710,483.508270 1019.929749,482.533264 
	C1019.805481,479.720367 1019.677185,476.814880 1019.558838,473.028442 
	C1019.454895,465.410095 1019.341003,458.672729 1019.227173,451.935333 
z"/>
<path fill="#626262" opacity="1.000000" stroke="none" 
	d="
M1052.708496,470.024689 
	C1052.194946,464.987122 1052.054932,459.959351 1051.922607,454.464172 
	C1061.414795,454.663574 1070.895386,455.398346 1080.386719,455.953888 
	C1083.057739,456.110229 1085.904297,455.946686 1086.200928,451.615234 
	C1086.735596,451.309845 1087.027954,451.464630 1087.724609,451.743774 
	C1088.407227,451.912079 1088.685791,451.956085 1089.068604,452.458801 
	C1089.137085,459.277252 1089.101318,465.637085 1089.065552,471.996887 
	C1076.942871,473.692535 1064.892822,474.058472 1052.708496,470.024689 
z"/>
<path fill="#F5F5F5" opacity="1.000000" stroke="none" 
	d="
M1087.320312,451.619446 
	C1087.027954,451.464630 1086.735596,451.309845 1086.187744,451.172699 
	C1084.969849,449.324921 1084.007324,447.459473 1082.729492,444.982758 
	C1085.730591,444.534058 1087.301758,444.299164 1089.067871,444.035126 
	C1089.173706,441.877533 1089.269653,439.921478 1089.389160,437.486206 
	C1091.782471,436.901276 1094.249146,436.298401 1097.364502,435.536987 
	C1097.572754,438.715088 1097.738647,441.247070 1097.873169,443.301666 
	C1101.134033,444.369171 1104.001099,445.307770 1106.884033,447.032562 
	C1106.220825,454.261078 1100.289185,448.836212 1097.944580,451.896362 
	C1097.944580,457.490326 1097.944580,463.243469 1097.944580,468.996613 
	C1098.111938,475.131683 1098.511230,475.503632 1105.993896,476.259308 
	C1106.086670,477.971344 1106.182007,479.727905 1106.272949,481.405762 
	C1097.412354,484.764374 1089.980957,483.147369 1089.094849,472.393555 
	C1089.101318,465.637085 1089.137085,459.277252 1089.023682,452.148193 
	C1088.356567,451.459106 1087.838379,451.539276 1087.320312,451.619446 
z"/>
<path fill="#626262" opacity="1.000000" stroke="none" 
	d="
M1098.335205,469.040833 
	C1097.944580,463.243469 1097.944580,457.490326 1097.944580,451.896362 
	C1100.289185,448.836212 1106.220825,454.261078 1106.982178,447.410400 
	C1110.394165,446.335449 1113.723633,445.668793 1117.481445,445.002869 
	C1117.971069,453.028748 1118.032349,461.053894 1118.007080,469.541138 
	C1111.456177,471.078827 1104.986572,472.263977 1098.335205,469.040833 
z"/>
<path fill="#626262" opacity="1.000000" stroke="none" 
	d="
M1127.911011,455.403351 
	C1129.391724,451.110260 1132.827881,450.380585 1136.636963,451.012451 
	C1140.539185,451.659760 1141.893677,454.738770 1142.063843,458.257141 
	C1142.270508,462.523956 1142.153076,466.806427 1142.081543,471.541321 
	C1137.273315,471.998901 1132.559570,471.997314 1127.372314,471.995209 
	C1126.885010,467.287415 1126.871338,462.580109 1127.213623,457.216980 
	C1127.683594,456.175262 1127.797241,455.789307 1127.911011,455.403351 
z"/>
<path fill="#626262" opacity="1.000000" stroke="none" 
	d="
M1018.800171,451.959930 
	C1019.341003,458.672729 1019.454895,465.410095 1019.413452,472.595917 
	C1015.161133,472.407593 1011.064270,471.770844 1006.601074,471.073669 
	C1007.299011,464.885590 1008.015137,458.781891 1004.950317,452.554260 
	C1005.599731,451.956207 1006.295471,451.539703 1006.981628,451.555054 
	C1010.780090,451.640106 1014.576233,451.830322 1018.800171,451.959930 
z"/>
<path fill="#676767" opacity="1.000000" stroke="none" 
	d="
M1028.757935,466.908325 
	C1028.318237,463.846619 1027.921143,460.811981 1028.348511,457.898315 
	C1029.046753,453.138885 1032.644897,450.451294 1037.083252,450.785339 
	C1041.928589,451.150055 1043.470215,454.512177 1043.855957,458.620819 
	C1044.119385,461.427307 1043.924683,464.276825 1043.856934,467.561768 
	C1042.577759,468.416779 1041.327759,468.710999 1040.183960,469.236328 
	C1035.939453,471.185791 1032.410034,469.851501 1028.757935,466.908325 
z"/>
<path fill="#FAFAFA" opacity="1.000000" stroke="none" 
	d="
M1106.000000,598.571655 
	C1103.215698,608.372498 1098.781006,616.509644 1090.403320,622.305542 
	C1076.562988,631.880554 1054.003052,630.567810 1042.522949,617.992432 
	C1038.453369,613.534607 1034.305664,609.025696 1033.343994,601.868530 
	C1030.813721,591.325439 1031.465820,581.611511 1034.233521,571.978882 
	C1037.649170,567.061035 1040.575195,561.694336 1044.584839,557.320801 
	C1052.392456,548.804443 1062.975464,547.825073 1073.664307,548.756592 
	C1078.298096,549.160461 1082.981934,550.592590 1087.334839,552.329712 
	C1104.050171,559.000366 1108.246216,579.480347 1106.635376,593.202637 
	C1106.442017,594.851318 1106.186523,596.492798 1106.000000,598.571655 
M1086.025635,572.714172 
	C1082.639893,565.250610 1077.297729,560.676636 1068.669067,560.897339 
	C1060.502563,561.106140 1055.187378,565.636230 1052.286865,572.725769 
	C1047.506470,584.410278 1047.348755,596.230225 1054.317749,607.169006 
	C1061.866821,619.018188 1077.080200,618.609680 1084.233521,606.515808 
	C1090.495239,595.929321 1090.757690,584.783447 1086.025635,572.714172 
z"/>
<path fill="#FAFAFA" opacity="1.000000" stroke="none" 
	d="
M1238.067139,575.623901 
	C1238.166748,581.248596 1238.166748,586.487427 1238.166748,592.191467 
	C1221.154419,592.191467 1204.439209,592.191467 1187.813721,592.191467 
	C1185.773682,603.641846 1194.896240,614.319702 1207.596802,614.754822 
	C1214.456787,614.989807 1221.372314,613.397278 1228.275513,612.770264 
	C1229.592529,612.650635 1230.969482,613.191284 1232.544678,613.705566 
	C1232.860107,617.283081 1234.162842,621.355164 1232.693726,623.661743 
	C1231.260620,625.911804 1227.055908,627.216919 1223.961060,627.437805 
	C1213.744385,628.166687 1203.374146,629.321472 1193.412598,625.725952 
	C1185.133545,622.737732 1178.791992,617.333557 1174.449219,608.803528 
	C1167.222412,589.114014 1169.230591,571.556274 1183.093140,556.030151 
	C1199.330444,543.029724 1231.768433,543.556641 1238.067139,575.623901 
M1192.579834,566.120300 
	C1190.482056,570.442566 1188.384277,574.764832 1185.987061,579.703857 
	C1199.090698,579.703857 1210.604004,579.703857 1222.098145,579.703857 
	C1222.305908,570.764893 1218.898804,564.035156 1212.694702,561.487305 
	C1205.328247,558.462036 1198.686890,559.770447 1192.579834,566.120300 
z"/>
<path fill="#FAFAFA" opacity="1.000000" stroke="none" 
	d="
M1139.133057,608.573669 
	C1139.055542,613.540100 1138.859619,618.508484 1138.943237,623.472168 
	C1138.996704,626.641724 1137.832153,627.782593 1134.577393,627.851501 
	C1121.721924,628.123718 1121.731445,628.223145 1121.707275,615.245300 
	C1121.698364,610.439941 1121.645020,605.634705 1121.510498,600.373901 
	C1121.526733,591.598450 1121.689209,583.278870 1121.749634,574.958496 
	C1121.808350,566.867126 1121.762329,558.775024 1121.762329,550.341370 
	C1125.560913,550.341370 1130.590698,550.341370 1135.637085,550.341370 
	C1136.033203,554.200562 1136.417480,557.944153 1136.905640,562.699829 
	C1142.847412,552.832520 1150.076782,546.797546 1161.795410,548.590088 
	C1161.880493,550.239990 1161.955811,551.701294 1162.041748,554.042603 
	C1162.052246,558.039978 1162.052246,561.157410 1162.052246,564.421570 
	C1160.297119,564.661621 1159.009277,564.920898 1157.710327,565.002502 
	C1145.660278,565.760132 1139.743286,571.371033 1139.104614,583.633362 
	C1138.672974,591.923828 1139.093628,600.258667 1139.133057,608.573669 
z"/>
<path fill="#444444" opacity="1.000000" stroke="none" 
	d="
M1139.555298,608.703613 
	C1139.093628,600.258667 1138.672974,591.923828 1139.104614,583.633362 
	C1139.743286,571.371033 1145.660278,565.760132 1157.710327,565.002502 
	C1159.009277,564.920898 1160.297119,564.661621 1162.052246,564.421570 
	C1162.052246,561.157410 1162.052246,558.039978 1162.118652,554.466797 
	C1168.504272,558.175415 1175.405518,556.530579 1182.643311,556.022949 
	C1169.230591,571.556274 1167.222412,589.114014 1174.201172,608.583923 
	C1162.808472,613.648926 1151.383301,613.783142 1139.555298,608.703613 
z"/>
<path fill="#444444" opacity="1.000000" stroke="none" 
	d="
M1033.817871,571.989197 
	C1031.465820,581.611511 1030.813721,591.325439 1033.103638,601.572693 
	C1023.674744,602.332520 1014.253418,602.672485 1004.355408,603.020691 
	C1003.727905,592.989136 1003.577148,582.949280 1003.557434,572.458008 
	C1013.593689,574.863403 1023.498291,575.139954 1033.817871,571.989197 
z"/>
<path fill="#444444" opacity="1.000000" stroke="none" 
	d="
M949.764404,570.427002 
	C952.283142,570.100708 955.023865,570.009216 957.764648,570.004822 
	C967.063354,569.989807 976.362122,570.005676 986.098999,570.012207 
	C986.624084,581.041626 986.710999,592.068604 986.714722,603.558899 
	C983.051208,605.014038 979.507324,606.176086 975.880554,606.950134 
	C972.166870,607.742737 968.868591,606.578674 965.718262,603.820129 
	C967.542725,589.305420 962.276672,578.373718 949.764404,570.427002 
z"/>
<path fill="#5D5D5D" opacity="1.000000" stroke="none" 
	d="
M1160.737183,456.138031 
	C1160.826660,456.325195 1160.700562,456.639069 1160.312500,457.043030 
	C1160.207520,456.843658 1160.364502,456.554199 1160.737183,456.138031 
z"/>
<path fill="#626262" opacity="1.000000" stroke="none" 
	d="
M1192.831299,453.971436 
	C1192.616821,453.993591 1192.363037,453.772430 1192.122559,453.287598 
	C1192.450806,453.168945 1192.669434,453.403687 1192.831299,453.971436 
z"/>
<path fill="#5D5D5D" opacity="1.000000" stroke="none" 
	d="
M1169.910400,469.301941 
	C1168.663208,467.654266 1167.268677,465.578796 1171.611572,465.411407 
	C1171.350708,466.660278 1170.704224,467.817200 1169.910400,469.301941 
z"/>
<path fill="#292929" opacity="1.000000" stroke="none" 
	d="
M813.671021,606.108154 
	C809.130432,595.018372 809.310059,584.012329 812.970215,573.281616 
	C815.434265,566.057495 821.468750,562.336426 829.122681,561.991882 
	C836.649597,561.653015 842.401001,565.095886 845.754578,571.748047 
	C851.088318,582.328125 851.133850,593.379089 846.091003,603.920044 
	C839.386292,617.934998 823.142151,618.982605 813.671021,606.108154 
z"/>
<path fill="#292929" opacity="1.000000" stroke="none" 
	d="
M750.473389,564.277161 
	C761.010193,571.818359 761.816467,582.535217 760.692139,593.593689 
	C760.267395,597.771301 758.704956,602.064514 756.716553,605.802612 
	C752.875916,613.022583 745.187805,616.198792 737.216003,614.663635 
	C729.863586,613.247620 723.659485,607.075378 722.924988,599.231995 
	C722.307312,592.636597 722.113403,585.865051 722.877808,579.304932 
	C724.507751,565.316895 737.025574,558.575867 750.473389,564.277161 
z"/>
<path fill="#292929" opacity="1.000000" stroke="none" 
	d="
M637.777832,560.795471 
	C640.095947,552.335022 642.314575,544.263733 644.740784,535.437439 
	C649.635437,551.285706 654.295654,566.374756 659.065491,581.818787 
	C649.810730,581.818787 640.786743,581.818787 631.010498,581.818787 
	C633.267578,574.833984 635.472961,568.009338 637.777832,560.795471 
z"/>
<path fill="#444444" opacity="1.000000" stroke="none" 
	d="
M903.021606,557.750977 
	C902.859680,557.759644 902.695923,557.514893 902.666870,557.155151 
	C902.874329,557.192688 902.947083,557.345154 903.021606,557.750977 
z"/>
<path fill="#313131" opacity="1.000000" stroke="none" 
	d="
M629.308472,448.214966 
	C630.293335,444.702209 631.147095,441.574432 632.234619,437.590302 
	C634.633545,445.549561 636.726562,452.494080 638.953064,459.881134 
	C634.536621,459.881134 630.376221,459.881134 625.698364,459.881134 
	C626.876343,456.061249 628.026855,452.330597 629.308472,448.214966 
z"/>
<path fill="#313131" opacity="1.000000" stroke="none" 
	d="
M711.805481,471.000977 
	C713.408447,464.907928 715.636963,463.665253 724.586487,463.467560 
	C726.503906,470.490204 724.806580,474.900482 719.600159,476.423798 
	C715.527588,477.615356 713.095703,476.050598 711.805481,471.000977 
z"/>
<path fill="#313131" opacity="1.000000" stroke="none" 
	d="
M811.719238,463.480896 
	C815.332886,468.264465 813.890564,474.083252 808.889282,476.072052 
	C805.706787,477.337555 802.635681,477.271210 800.668213,473.929810 
	C798.882751,470.897461 800.212830,466.635803 803.680054,465.160034 
	C806.047241,464.152466 808.767639,463.974518 811.719238,463.480896 
z"/>
<path fill="#676767" opacity="1.000000" stroke="none" 
	d="
M859.219971,474.503998 
	C851.587524,479.036896 844.046204,473.377502 844.798279,465.776550 
	C845.026672,463.467896 844.692688,461.096039 844.998840,458.804230 
	C845.585388,454.413910 847.974976,451.424591 852.544739,450.732422 
	C857.084656,450.044830 860.534973,451.951050 862.139832,456.142090 
	C864.591858,462.545319 864.606201,468.826050 859.219971,474.503998 
z"/>
<path fill="#595959" opacity="1.000000" stroke="none" 
	d="
M1127.644287,455.577454 
	C1127.797241,455.789307 1127.683594,456.175262 1127.345215,456.764221 
	C1127.206177,456.562012 1127.291870,456.156799 1127.644287,455.577454 
z"/>
<path fill="#444444" opacity="1.000000" stroke="none" 
	d="
M986.545288,563.692017 
	C986.089722,563.790466 985.653381,563.594543 985.103394,563.180054 
	C985.514648,563.106750 986.039490,563.252136 986.545288,563.692017 
z"/>
<path fill="#676767" opacity="1.000000" stroke="none" 
	d="
M981.505676,472.284546 
	C978.536438,466.583282 978.342041,461.108795 980.835754,455.601654 
	C982.405396,452.135223 985.034119,450.022034 988.984985,450.027527 
	C992.943848,450.033051 996.204224,452.069611 996.932007,455.679688 
	C997.849182,460.228088 998.542114,465.351715 997.349487,469.681061 
	C995.121277,477.769714 987.488586,478.873016 981.505676,472.284546 
z"/>
<path fill="#676767" opacity="1.000000" stroke="none" 
	d="
M922.882812,449.781677 
	C928.342468,450.557739 930.173523,453.787079 930.199829,458.918396 
	C924.671265,458.918396 919.321594,458.918396 913.945740,458.918396 
	C914.481750,452.800232 916.530029,450.657166 922.882812,449.781677 
z"/>
<path fill="#676767" opacity="1.000000" stroke="none" 
	d="
M1180.712646,459.293030 
	C1176.640869,459.293030 1173.029541,459.293030 1169.453979,459.293030 
	C1169.076294,453.951721 1172.006104,450.219238 1176.582397,449.800842 
	C1181.920898,449.312775 1184.775269,452.143860 1185.414429,458.987610 
	C1183.996094,459.089722 1182.584595,459.191376 1180.712646,459.293030 
z"/>
<path fill="#676767" opacity="1.000000" stroke="none" 
	d="
M1087.724609,451.743774 
	C1087.838379,451.539276 1088.356567,451.459106 1088.919434,451.689514 
	C1088.685791,451.956085 1088.407227,451.912079 1087.724609,451.743774 
z"/>
<path fill="#444444" opacity="1.000000" stroke="none" 
	d="
M1086.166626,573.073486 
	C1090.757690,584.783447 1090.495239,595.929321 1084.233521,606.515808 
	C1077.080200,618.609680 1061.866821,619.018188 1054.317749,607.169006 
	C1047.348755,596.230225 1047.506470,584.410278 1052.286865,572.725769 
	C1055.187378,565.636230 1060.502563,561.106140 1068.669067,560.897339 
	C1077.297729,560.676636 1082.639893,565.250610 1086.166626,573.073486 
z"/>
<path fill="#4E4E4E" opacity="1.000000" stroke="none" 
	d="
M1192.826416,565.849304 
	C1198.686890,559.770447 1205.328247,558.462036 1212.694702,561.487305 
	C1218.898804,564.035156 1222.305908,570.764893 1222.098145,579.703857 
	C1210.604004,579.703857 1199.090698,579.703857 1185.987061,579.703857 
	C1188.384277,574.764832 1190.482056,570.442566 1192.826416,565.849304 
z"/>
</svg>