<svg width="33" height="32" viewBox="0 0 33 32" fill="none" xmlns="http://www.w3.org/2000/svg">
<path fill-rule="evenodd" clip-rule="evenodd" d="M4.05556 6.5C3.86796 6.5 3.69614 6.60501 3.61058 6.77196L4.05556 7C3.61058 6.77196 3.61055 6.77203 3.61051 6.77211L3.6104 6.77233L3.61007 6.77298L3.60898 6.77509L3.60517 6.7826L3.59117 6.81037C3.5791 6.83442 3.56169 6.86941 3.53969 6.91432C3.49571 7.00411 3.43333 7.13371 3.3587 7.29506C3.2096 7.61737 3.01071 8.06824 2.81151 8.58273C2.42056 9.59247 2 10.9175 2 12C2 13.0825 2.42056 14.4075 2.81151 15.4173C3.01071 15.9318 3.2096 16.3826 3.3587 16.7049C3.43333 16.8663 3.49571 16.9959 3.53969 17.0857C3.56169 17.1306 3.5791 17.1656 3.59117 17.1896L3.60517 17.2174L3.60898 17.2249L3.61007 17.227L3.6104 17.2277L3.61051 17.2279C3.61055 17.228 3.61058 17.228 4.05556 17L3.61058 17.228C3.69614 17.395 3.86796 17.5 4.05556 17.5H28.9444C29.132 17.5 29.3039 17.395 29.3894 17.228L28.9444 17C29.3894 17.228 29.3895 17.228 29.3895 17.2279L29.3896 17.2277L29.3899 17.227L29.391 17.2249L29.3948 17.2174L29.4088 17.1896C29.4209 17.1656 29.4383 17.1306 29.4603 17.0857C29.5043 16.9959 29.5667 16.8663 29.6413 16.7049C29.7904 16.3826 29.9893 15.9318 30.1885 15.4173C30.5794 14.4075 31 13.0825 31 12C31 10.9175 30.5794 9.59247 30.1885 8.58273C29.9893 8.06824 29.7904 7.61737 29.6413 7.29506C29.5667 7.13371 29.5043 7.00411 29.4603 6.91432C29.4383 6.86941 29.4209 6.83442 29.4088 6.81037L29.3948 6.7826L29.391 6.77509L29.3899 6.77298L29.3896 6.77233L29.3895 6.77211C29.3895 6.77203 29.3894 6.77196 28.9444 7L29.3894 6.77196C29.3039 6.60501 29.132 6.5 28.9444 6.5H4.05556ZM4.2663 7.71489C4.30354 7.63439 4.33748 7.56238 4.36727 7.5H28.6327C28.6625 7.56238 28.6965 7.63439 28.7337 7.71489C28.8763 8.0231 29.0663 8.45386 29.256 8.94379C29.6428 9.94289 30 11.1178 30 12C30 12.8822 29.6428 14.0571 29.256 15.0562C29.0663 15.5461 28.8763 15.9769 28.7337 16.2851C28.6965 16.3656 28.6625 16.4376 28.6327 16.5H4.36727C4.33748 16.4376 4.30354 16.3656 4.2663 16.2851C4.12373 15.9769 3.93374 15.5461 3.74405 15.0562C3.35722 14.0571 3 12.8822 3 12C3 11.1178 3.35722 9.94289 3.74405 8.94379C3.93374 8.45386 4.12373 8.0231 4.2663 7.71489ZM2 19C2 18.7239 2.22386 18.5 2.5 18.5H30.5C30.7761 18.5 31 18.7239 31 19C31 19.2761 30.7761 19.5 30.5 19.5H2.5C2.22386 19.5 2 19.2761 2 19ZM4.50218 21.5C3.7069 21.5 3.00526 22.2047 3.00874 23C3.01221 23.7953 3.72001 24.5 4.51529 24.5C5.31058 24.5 6.01221 23.7953 6.00874 23C6.005 22.1449 5.30918 21.5 4.50218 21.5ZM2.00874 23C2.00285 21.6525 3.15024 20.5 4.49781 20.5C5.83367 20.5 7.00249 21.5695 7.00874 23C7.01463 24.3476 5.86724 25.5 4.51967 25.5C3.17209 25.5 2.01463 24.3476 2.00874 23ZM8.22627 23C8.22279 22.2047 8.92443 21.5 9.71971 21.5C10.5267 21.5 11.2225 22.1449 11.2263 23C11.2297 23.7953 10.5281 24.5 9.73282 24.5C8.93754 24.5 8.22974 23.7953 8.22627 23ZM9.71534 20.5C8.36777 20.5 7.22038 21.6525 7.22627 23C7.23216 24.3476 8.38962 25.5 9.73719 25.5C11.0848 25.5 12.2322 24.3476 12.2263 23C12.22 21.5695 11.0512 20.5 9.71534 20.5ZM28.5022 21.5C27.7069 21.5 27.0053 22.2047 27.0087 23C27.0122 23.7953 27.72 24.5 28.5153 24.5C29.3106 24.5 30.0122 23.7953 30.0087 23C30.005 22.1449 29.3092 21.5 28.5022 21.5ZM26.0087 23C26.0028 21.6525 27.1502 20.5 28.4978 20.5C29.8337 20.5 31.0025 21.5695 31.0087 23C31.0146 24.3476 29.8672 25.5 28.5197 25.5C27.1721 25.5 26.0146 24.3476 26.0087 23Z" fill="#53565A"/>
</svg>
