<svg width="33" height="32" viewBox="0 0 33 32" fill="none" xmlns="http://www.w3.org/2000/svg">
<path fill-rule="evenodd" clip-rule="evenodd" d="M3 6.5C2.44772 6.5 2 6.94772 2 7.5V16.5C2 17.0523 2.44771 17.5 3 17.5H30C30.5523 17.5 31 17.0523 31 16.5V7.5C31 6.94772 30.5523 6.5 30 6.5H3ZM3 7.5L30 7.5V16.5H3V7.5ZM2 19C2 18.7239 2.22386 18.5 2.5 18.5H30.5C30.7761 18.5 31 18.7239 31 19C31 19.2761 30.7761 19.5 30.5 19.5H2.5C2.22386 19.5 2 19.2761 2 19ZM4.50218 21.5C3.7069 21.5 3.00526 22.2047 3.00874 23C3.01221 23.7953 3.72001 24.5 4.51529 24.5C5.31058 24.5 6.01221 23.7953 6.00874 23C6.005 22.1449 5.30918 21.5 4.50218 21.5ZM2.00874 23C2.00285 21.6525 3.15024 20.5 4.49781 20.5C5.83367 20.5 7.00249 21.5695 7.00874 23C7.01463 24.3476 5.86724 25.5 4.51967 25.5C3.17209 25.5 2.01463 24.3476 2.00874 23ZM8.22627 23C8.22279 22.2047 8.92443 21.5 9.71971 21.5C10.5267 21.5 11.2225 22.1449 11.2263 23C11.2297 23.7953 10.5281 24.5 9.73282 24.5C8.93754 24.5 8.22974 23.7953 8.22627 23ZM9.71534 20.5C8.36777 20.5 7.22038 21.6525 7.22627 23C7.23216 24.3476 8.38962 25.5 9.73719 25.5C11.0848 25.5 12.2322 24.3476 12.2263 23C12.22 21.5695 11.0512 20.5 9.71534 20.5ZM28.5022 21.5C27.7069 21.5 27.0053 22.2047 27.0087 23C27.0122 23.7953 27.72 24.5 28.5153 24.5C29.3106 24.5 30.0122 23.7953 30.0087 23C30.005 22.1449 29.3092 21.5 28.5022 21.5ZM26.0087 23C26.0028 21.6525 27.1502 20.5 28.4978 20.5C29.8337 20.5 31.0025 21.5695 31.0087 23C31.0146 24.3476 29.8672 25.5 28.5197 25.5C27.1721 25.5 26.0146 24.3476 26.0087 23ZM6.5 8.5C6.77614 8.5 7 8.72386 7 9V15C7 15.2761 6.77614 15.5 6.5 15.5C6.22386 15.5 6 15.2761 6 15V9C6 8.72386 6.22386 8.5 6.5 8.5ZM13.6667 9C13.6667 8.72386 13.4428 8.5 13.1667 8.5C12.8905 8.5 12.6667 8.72386 12.6667 9V15C12.6667 15.2761 12.8905 15.5 13.1667 15.5C13.4428 15.5 13.6667 15.2761 13.6667 15V9ZM19.8333 8.5C20.1095 8.5 20.3333 8.72386 20.3333 9V15C20.3333 15.2761 20.1095 15.5 19.8333 15.5C19.5572 15.5 19.3333 15.2761 19.3333 15V9C19.3333 8.72386 19.5572 8.5 19.8333 8.5ZM27 9C27 8.72386 26.7761 8.5 26.5 8.5C26.2239 8.5 26 8.72386 26 9V15C26 15.2761 26.2239 15.5 26.5 15.5C26.7761 15.5 27 15.2761 27 15V9Z" fill="#53565A"/>
</svg>
