<svg width="33" height="32" viewBox="0 0 33 32" fill="none" xmlns="http://www.w3.org/2000/svg">
<path fill-rule="evenodd" clip-rule="evenodd" d="M9 13C9 12.7239 9.22386 12.5 9.5 12.5H28.5C28.7761 12.5 29 12.7239 29 13C29 13.2761 28.7761 13.5 28.5 13.5H9.5C9.22386 13.5 9 13.2761 9 13ZM9 15C9 14.7239 9.22386 14.5 9.5 14.5H28.5C28.7761 14.5 29 14.7239 29 15C29 15.2761 28.7761 15.5 28.5 15.5H9.5C9.22386 15.5 9 15.2761 9 15ZM9.5 16.5C9.22386 16.5 9 16.7239 9 17C9 17.2761 9.22386 17.5 9.5 17.5H28.5C28.7761 17.5 29 17.2761 29 17C29 16.7239 28.7761 16.5 28.5 16.5H9.5ZM2 19C2 18.7239 2.22386 18.5 2.5 18.5H30.5C30.7761 18.5 31 18.7239 31 19C31 19.2761 30.7761 19.5 30.5 19.5H2.5C2.22386 19.5 2 19.2761 2 19ZM3.00874 23C3.00526 22.2047 3.7069 21.5 4.50218 21.5C5.30918 21.5 6.005 22.1449 6.00874 23C6.01221 23.7953 5.31058 24.5 4.51529 24.5C3.72001 24.5 3.01221 23.7953 3.00874 23ZM4.49781 20.5C3.15024 20.5 2.00285 21.6525 2.00874 23C2.01463 24.3476 3.17209 25.5 4.51967 25.5C5.86724 25.5 7.01463 24.3476 7.00874 23C7.00249 21.5695 5.83367 20.5 4.49781 20.5ZM9.71971 21.5C8.92443 21.5 8.22279 22.2047 8.22627 23C8.22974 23.7953 8.93754 24.5 9.73282 24.5C10.5281 24.5 11.2297 23.7953 11.2263 23C11.2225 22.1449 10.5267 21.5 9.71971 21.5ZM7.22627 23C7.22038 21.6525 8.36777 20.5 9.71534 20.5C11.0512 20.5 12.22 21.5695 12.2263 23C12.2322 24.3476 11.0848 25.5 9.73719 25.5C8.38962 25.5 7.23216 24.3476 7.22627 23ZM27.0087 23C27.0053 22.2047 27.7069 21.5 28.5022 21.5C29.3092 21.5 30.005 22.1449 30.0087 23C30.0122 23.7953 29.3106 24.5 28.5153 24.5C27.72 24.5 27.0122 23.7953 27.0087 23ZM28.4978 20.5C27.1502 20.5 26.0028 21.6525 26.0087 23C26.0146 24.3476 27.1721 25.5 28.5197 25.5C29.8672 25.5 31.0146 24.3476 31.0087 23C31.0025 21.5695 29.8337 20.5 28.4978 20.5Z" fill="#53565A"/>
</svg>
