<svg width="33" height="32" viewBox="0 0 33 32" fill="none" xmlns="http://www.w3.org/2000/svg">
<path fill-rule="evenodd" clip-rule="evenodd" d="M21.3594 5.51614C22.2129 4.66269 23.3333 4.13761 24.5244 4.0222V27.3671C24.5244 27.5359 24.4573 27.6979 24.338 27.8172C24.2186 27.9366 24.0566 28.0037 23.8878 28.0037C23.7189 28.0037 23.557 27.9366 23.4376 27.8172C23.3182 27.6979 23.2512 27.5359 23.2512 27.3671V18.2741C23.2512 17.998 23.0273 17.7741 22.7512 17.7741H19.8413V9.18115C19.8413 7.80651 20.3874 6.48816 21.3594 5.51614ZM25.0244 2.99805C23.3846 2.99805 21.8119 3.64948 20.6523 4.80904C19.4927 5.96859 18.8413 7.54129 18.8413 9.18115V18.2741C18.8413 18.5503 19.0652 18.7741 19.3413 18.7741H22.2512V27.3671C22.2512 27.8011 22.4236 28.2174 22.7305 28.5244C23.0375 28.8313 23.4537 29.0037 23.8878 29.0037C24.3218 29.0037 24.7381 28.8313 25.0451 28.5244C25.352 28.2174 25.5244 27.8011 25.5244 27.3671V3.49805C25.5244 3.36544 25.4717 3.23826 25.378 3.14449C25.2842 3.05073 25.157 2.99805 25.0244 2.99805ZM13.022 4.63281C13.022 4.35667 12.7981 4.13281 12.522 4.13281C12.2458 4.13281 12.022 4.35667 12.022 4.63281V10.3159C12.022 10.5921 12.2458 10.8159 12.522 10.8159C12.7981 10.8159 13.022 10.5921 13.022 10.3159V4.63281ZM15.2953 4.63477C15.2953 4.35862 15.0715 4.13477 14.7953 4.13477C14.5192 4.13477 14.2953 4.35862 14.2953 4.63477V11.4545C14.2953 11.871 14.2582 12.2968 14.0092 12.766C13.7574 13.2405 13.2621 13.8082 12.256 14.4406C12.1104 14.5321 12.0221 14.692 12.0221 14.8639V27.3668C12.0221 27.5356 11.955 27.6975 11.8356 27.8169C11.716 27.9365 11.554 28.0036 11.3855 28.0036C11.2166 28.0036 11.0547 27.9366 10.9353 27.8172C10.8159 27.6978 10.7488 27.5359 10.7488 27.367V14.8642C10.7488 14.6922 10.6605 14.5324 10.5149 14.4409C9.50884 13.8085 9.01347 13.2408 8.76167 12.7663C8.51269 12.2971 8.47559 11.8713 8.47559 11.4548V4.63503C8.47559 4.35889 8.25173 4.13503 7.97559 4.13503C7.69944 4.13503 7.47559 4.35889 7.47559 4.63503V11.4548C7.47559 11.9426 7.51883 12.5575 7.87834 13.235C8.2091 13.8583 8.78458 14.4925 9.74883 15.1361V27.367C9.74883 27.8011 9.92126 28.2174 10.2282 28.5243C10.5351 28.8312 10.9514 29.0036 11.3855 29.0036C11.8198 29.0036 12.236 28.8307 12.5427 28.524C12.8496 28.2171 13.0221 27.8008 13.0221 27.3668V15.1358C13.9863 14.4923 14.5618 13.8581 14.8926 13.2348C15.2521 12.5573 15.2953 11.9423 15.2953 11.4545V4.63477ZM10.2488 4.13281C10.5249 4.13281 10.7488 4.35667 10.7488 4.63281V10.3159C10.7488 10.5921 10.5249 10.8159 10.2488 10.8159C9.97264 10.8159 9.74878 10.5921 9.74878 10.3159V4.63281C9.74878 4.35667 9.97264 4.13281 10.2488 4.13281Z" fill="#53565A"/>
</svg>
